<?xml version="1.0" encoding="UTF-8"?>
<svg id="Capa_1" data-name="Capa 1" xmlns="http://www.w3.org/2000/svg" xmlns:xlink="http://www.w3.org/1999/xlink" viewBox="0 0 1200 1200">
  <defs>
    <style>
      .cls-1 {
        fill: url(#Degradado_sin_nombre_14);
      }

      .cls-1, .cls-2, .cls-3 {
        fill-rule: evenodd;
      }

      .cls-1, .cls-2, .cls-3, .cls-4, .cls-5, .cls-6, .cls-7 {
        stroke-width: 0px;
      }

      .cls-2 {
        fill: #56b039;
      }

      .cls-3 {
        fill: #feca05;
      }

      .cls-4 {
        fill: #99c329;
      }

      .cls-5 {
        fill: #0a1723;
      }

      .cls-6 {
        fill: #cccc14;
      }

      .cls-7 {
        fill: #72b732;
      }
    </style>
    <linearGradient id="Degradado_sin_nombre_14" data-name="Degradado sin nombre 14" x1="255.19" y1="576.42" x2="933.79" y2="576.42" gradientUnits="userSpaceOnUse">
      <stop offset="0" stop-color="#00bed6"/>
      <stop offset=".35" stop-color="#0075ad"/>
      <stop offset=".8" stop-color="#56b039"/>
      <stop offset="1" stop-color="#009640"/>
    </linearGradient>
  </defs>
  <path class="cls-2" d="m1108.17,1141.11v-30.05c0-5.39-4.39-9.79-9.79-9.79H121.99c-5.39,0-9.79,4.4-9.79,9.79v30.05h995.98Z"/>
  <rect class="cls-4" x="505.6" y="1101.27" width="209.18" height="39.84"/>
  <rect class="cls-6" x="296.42" y="1101.27" width="209.18" height="39.84"/>
  <path class="cls-3" d="m296.42,1101.27H121.99c-5.39,0-9.79,4.4-9.79,9.79v30.05h184.22v-39.84Z"/>
  <rect class="cls-7" x="714.78" y="1101.27" width="209.18" height="39.84"/>
  <g>
    <path class="cls-5" d="m299.39,873.1c-7.16,5.99-15.51,8.51-25.05,7.56-9.52-.93-17.34-5.06-23.48-12.4-6.07-7.25-8.67-15.64-7.83-25.16.83-9.54,4.88-17.36,12.15-23.44,7.32-6.12,15.71-8.7,25.18-7.74,9.51.97,17.38,5.17,23.59,12.59,5.5,6.57,8.16,14.37,7.99,23.4-.21,9.97-4.4,18.36-12.55,25.18Zm-6.38-7.83c5.62-4.71,8.67-10.46,9.13-17.28.48-6.79-1.34-12.65-5.45-17.57-4.47-5.34-10.08-8.3-16.84-8.88-6.8-.54-12.89,1.43-18.25,5.91-5.43,4.54-8.46,10.16-9.1,16.85-.68,6.69,1.21,12.7,5.66,18.01,4.43,5.3,10.02,8.22,16.76,8.78,6.7.59,12.73-1.35,18.09-5.83Z"/>
    <path class="cls-5" d="m272.71,784.42l-57.76,32.64-4.91-8.68c-2.18-3.87-3.62-7.11-4.32-9.75-.71-2.66-.81-5.18-.29-7.59.56-2.45,1.66-4.77,3.32-6.96,1.67-2.23,3.64-3.98,5.91-5.26,4.14-2.34,8.54-2.74,13.2-1.19-.69-3.66-.22-7.11,1.4-10.36,1.58-3.26,4.09-5.86,7.53-7.81,4.51-2.55,9.23-3.11,14.15-1.68,3.01.84,5.56,2.24,7.66,4.21,2.2,2.21,4.42,5.28,6.64,9.23l7.46,13.21Zm-37.88,9.91l-1.54-2.73c-1.83-3.24-3.89-5.21-6.18-5.91-2.29-.7-4.83-.26-7.62,1.32-2.72,1.54-4.34,3.48-4.88,5.82-.54,2.34.03,4.99,1.69,7.93l1.73,3.07,16.8-9.49Zm24.77-13.99l-3.05-5.39c-2.23-3.94-4.63-6.4-7.22-7.37-2.77-1-5.44-.78-8.01.68-2.49,1.41-4.06,3.53-4.7,6.36-.64,2.76.36,6.49,3.01,11.18l2.49,4.41,17.47-9.87Z"/>
    <path class="cls-5" d="m180.37,720.35l7.41,5.85c-1.91,2.36-3,4.33-3.25,5.9-.34,1.67-.11,3.56.71,5.67,1,2.59,2.56,4.46,4.69,5.61,2.1,1.16,4.25,1.31,6.44.47,3.02-1.16,4.59-4.34,4.71-9.54l.15-7.15c.1-5.81,1.16-10.44,3.2-13.89,2.03-3.45,5.17-6,9.43-7.63,5.69-2.19,11.13-2.1,16.31.26,5.21,2.38,8.91,6.41,11.09,12.08,2.07,5.37,2.18,10.42.35,15.15-1.86,4.67-5.51,8.55-10.95,11.63l-5.73-8.66c3.47-1.83,5.7-3.54,6.68-5.15,1.93-2.95,2.19-6.28.77-9.96-1.12-2.91-3.03-4.96-5.72-6.13-2.69-1.17-5.53-1.19-8.53-.03-1.2.46-2.24,1.05-3.12,1.77-.87.72-1.6,1.6-2.17,2.63-.57,1.03-1,2.25-1.31,3.66-.3,1.4-.49,3.01-.56,4.82l-.19,6.93c-.32,9.85-3.93,16.11-10.83,18.76-4.65,1.79-9.23,1.51-13.72-.84-4.52-2.34-7.8-6.16-9.84-11.45-2.74-7.14-1.41-14.05,3.99-20.73Z"/>
    <path class="cls-5" d="m164.51,659.94l5.87,25.94,15.55-3.52-5.7-25.19,9.18-2.08,5.7,25.19,21.63-4.89-5.87-25.94,9.18-2.08,8.08,35.71-64.71,14.64-8.08-35.71,9.18-2.08Z"/>
    <path class="cls-5" d="m187.72,610.24l26.66-22.6.92,12.21-25.66,20.93.14,1.8,27.08-2.03.75,9.98-66.16,4.96-.88-11.7c-.65-8.74.51-15.18,3.51-19.31,3.33-4.56,8-7.06,14-7.51,4.69-.35,8.81.69,12.39,3.12,3.57,2.43,5.99,5.81,7.27,10.14Zm-6.65,12.99l-.24-3.17c-.71-9.46-4.68-13.91-11.9-13.37-6.77.51-9.81,5.36-9.12,14.56l.27,3.56,21-1.58Z"/>
    <path class="cls-5" d="m148.75,567.66l47.29-14.62-44.35-22.21.87-10.92,68.73,35.37-73.42,23.31.87-10.92Z"/>
    <path class="cls-5" d="m213.79,477.23l-6.79,27.58,13.88,11.03-2.58,10.47-60.62-48.73,76.04-13.9-2.62,10.64-17.31,2.91Zm-10.11,1.72l-24.26,4.16,19.44,15.4,4.82-19.57Z"/>
    <path class="cls-5" d="m191.67,417.69l52.8,21.29-3.74,9.29-52.8-21.29-5.71,14.15-8.73-3.52,15.14-37.54,8.73,3.52-5.69,14.11Z"/>
    <path class="cls-5" d="m223.74,400.5c-7.97-4.87-13.03-11.97-15.18-21.31-2.16-9.31-.75-18.05,4.24-26.22,4.93-8.07,12.04-13.22,21.34-15.46,9.31-2.27,18.01-.93,26.1,4.02,8.14,4.98,13.27,12.1,15.38,21.39,2.12,9.32.66,18.11-4.39,26.38-4.47,7.31-11.01,12.33-19.62,15.05-9.51,2.98-18.8,1.7-27.87-3.84Zm5.38-8.55c6.26,3.82,12.69,4.87,19.29,3.13,6.59-1.71,11.55-5.31,14.9-10.78,3.63-5.94,4.64-12.2,3.03-18.8-1.66-6.62-5.47-11.75-11.44-15.4-6.04-3.69-12.33-4.77-18.88-3.23-6.56,1.5-11.64,5.21-15.26,11.12-3.6,5.89-4.59,12.12-2.96,18.69,1.58,6.54,5.35,11.63,11.31,15.27Z"/>
    <path class="cls-5" d="m293.28,311.26l34.75,3.69-8.2,9.09-32.86-4.13-1.21,1.34,20.16,18.19-6.71,7.43-49.25-44.45,7.86-8.71c5.87-6.51,11.34-10.1,16.39-10.79,5.6-.73,10.63.91,15.1,4.95,3.49,3.15,5.58,6.85,6.29,11.12.71,4.26-.07,8.35-2.32,12.26Zm-13.99,4.16l2.13-2.36c6.35-7.04,6.84-12.99,1.46-17.84-5.04-4.55-10.65-3.4-16.83,3.45l-2.39,2.65,15.63,14.11Z"/>
    <path class="cls-5" d="m302.78,249.27l43.73,49.89-7.53,6.6-43.73-49.89,7.53-6.6Z"/>
    <path class="cls-5" d="m340.27,259.32c-5.04-7.86-6.49-16.46-4.35-25.8,2.12-9.32,7.21-16.57,15.26-21.73,7.96-5.1,16.61-6.63,25.95-4.6,9.36,2.03,16.61,7.03,21.73,15.01,5.15,8.03,6.65,16.68,4.5,25.96-2.16,9.32-7.31,16.59-15.46,21.81-7.21,4.62-15.28,6.28-24.22,4.97-9.86-1.47-17.66-6.68-23.4-15.62Zm8.57-5.34c3.96,6.17,9.29,9.92,15.99,11.24,6.67,1.33,12.71.27,18.11-3.2,5.86-3.76,9.5-8.95,10.93-15.59,1.4-6.68.21-12.96-3.56-18.85-3.82-5.96-9.01-9.67-15.57-11.15-6.55-1.51-12.75-.4-18.58,3.34-5.81,3.73-9.42,8.9-10.82,15.52-1.44,6.57-.27,12.8,3.51,18.68Z"/>
    <path class="cls-5" d="m460.77,231.52l-18.87-63.6,13.35-3.96c6.4-1.9,11.64-2.77,15.72-2.6,4.35.05,8.58,1.08,12.7,3.09,8.34,4.04,13.96,10.93,16.85,20.68,2.9,9.78,1.83,18.7-3.22,26.77-2.54,4.04-5.51,7.21-8.92,9.5-3.17,2.23-7.97,4.29-14.43,6.21l-13.18,3.91Zm6.92-11.87l4.33-1.28c4.31-1.28,7.76-2.8,10.35-4.55,2.57-1.81,4.7-4.1,6.39-6.87,3.44-5.71,4.14-12.03,2.09-18.95-2.07-6.98-6.08-11.94-12.04-14.89-5.35-2.62-12.12-2.72-20.3-.29l-4.33,1.28,13.52,45.56Z"/>
    <path class="cls-5" d="m555.14,153.26l-26.38,3.37,2.02,15.81,25.62-3.27,1.19,9.33-25.62,3.27,2.81,21.99,26.38-3.37,1.19,9.33-36.32,4.64-8.41-65.81,36.31-4.64,1.19,9.33Z"/>
    <path class="cls-5" d="m627.37,144.47l-5.04,56.71,19.43,1.73-.83,9.37-29.4-2.62,5.88-66.08,9.97.89Z"/>
    <path class="cls-5" d="m699.39,208.52l-27.54-6.96-11.11,13.81-10.46-2.64,49.1-60.32,13.43,76.12-10.62-2.68-2.8-17.33Zm-1.65-10.12l-4.02-24.28-15.52,19.35,19.54,4.94Z"/>
    <path class="cls-5" d="m812.95,214.26l-9.43.38c-.08-3.04-.54-5.24-1.37-6.6-.82-1.49-2.23-2.77-4.22-3.84-2.45-1.32-4.85-1.72-7.21-1.21-2.35.49-4.08,1.77-5.2,3.83-1.54,2.85-.66,6.28,2.63,10.31l4.54,5.53c3.7,4.48,5.91,8.68,6.61,12.63.7,3.94-.03,7.92-2.19,11.93-2.9,5.37-7.09,8.84-12.56,10.41-5.51,1.58-10.94.93-16.28-1.96-5.07-2.74-8.44-6.5-10.12-11.28-1.63-4.75-1.38-10.07.75-15.95l9.98,2.85c-1.45,3.65-2.02,6.4-1.72,8.25.45,3.5,2.42,6.19,5.9,8.07,2.75,1.48,5.53,1.8,8.33.94,2.81-.86,4.98-2.7,6.5-5.52.61-1.14,1.02-2.26,1.21-3.37.2-1.11.17-2.25-.06-3.4-.24-1.16-.7-2.37-1.39-3.63-.68-1.26-1.59-2.61-2.71-4.03l-4.37-5.39c-6.17-7.69-7.49-14.79-3.98-21.29,2.37-4.39,6.03-7.15,10.97-8.29,4.96-1.16,9.93-.4,14.92,2.3,6.73,3.63,10.21,9.75,10.46,18.34Z"/>
    <path class="cls-5" d="m819.4,244.4c5.86-7.27,13.56-11.37,23.1-12.29,9.52-.94,18,1.59,25.44,7.6,7.36,5.93,11.55,13.65,12.57,23.16,1.04,9.52-1.41,17.98-7.36,25.36-5.99,7.43-13.72,11.59-23.2,12.48-9.52.9-18.05-1.69-25.59-7.76-6.67-5.38-10.8-12.51-12.38-21.41-1.73-9.82.74-18.86,7.41-27.14Zm7.78,6.44c-4.6,5.71-6.47,11.95-5.6,18.72.85,6.75,3.77,12.14,8.76,16.17,5.42,4.37,11.5,6.18,18.25,5.44,6.78-.79,12.36-3.9,16.75-9.35,4.44-5.51,6.32-11.61,5.64-18.3-.64-6.7-3.65-12.22-9.05-16.57-5.38-4.33-11.42-6.12-18.15-5.35-6.69.72-12.22,3.8-16.61,9.24Z"/>
    <path class="cls-5" d="m930.07,317.91l-8.94-3.03c1.01-2.87,1.37-5.09,1.08-6.65-.24-1.68-1.09-3.39-2.57-5.1-1.81-2.11-3.91-3.34-6.3-3.71-2.37-.38-4.44.19-6.23,1.72-2.46,2.11-2.87,5.63-1.23,10.57l2.26,6.78c1.86,5.5,2.41,10.22,1.65,14.16-.76,3.93-2.86,7.38-6.32,10.35-4.63,3.97-9.78,5.72-15.45,5.22-5.71-.5-10.54-3.05-14.5-7.65-3.75-4.37-5.56-9.09-5.41-14.15.18-5.02,2.32-9.9,6.41-14.63l8.3,6.24c-2.66,2.89-4.18,5.25-4.56,7.09-.83,3.43.04,6.65,2.62,9.64,2.03,2.37,4.52,3.65,7.45,3.86,2.93.2,5.61-.74,8.05-2.83.98-.84,1.76-1.75,2.34-2.72.58-.97.97-2.04,1.16-3.2.19-1.16.19-2.46,0-3.88s-.55-3-1.09-4.73l-2.15-6.59c-3-9.39-1.7-16.49,3.91-21.31,3.78-3.25,8.18-4.52,13.21-3.81,5.05.69,9.42,3.18,13.11,7.49,4.98,5.8,6.05,12.76,3.2,20.87Z"/>
    <path class="cls-5" d="m956.01,354.84l-47.9,30.77-5.41-8.42,47.9-30.77-8.24-12.83,7.92-5.09,21.87,34.06-7.92,5.09-8.22-12.8Z"/>
    <path class="cls-5" d="m989.51,418.89l-11.28-24.09-14.44,6.76,10.95,23.39-8.52,3.99-10.96-23.39-20.08,9.41,11.28,24.09-8.52,3.99-15.53-33.15,60.08-28.14,15.53,33.15-8.52,3.99Z"/>
    <path class="cls-5" d="m944.46,458.4l68.4-18.51-36.22,59.92,44.5-12.04,2.62,9.66-67.94,18.38,36.1-59.89-44.84,12.13-2.61-9.66Z"/>
    <path class="cls-5" d="m1028.85,536.51l-65.87,7.95-1.2-9.94,65.87-7.95,1.2,9.94Z"/>
    <path class="cls-5" d="m965,564.62l66.34-.26.04,9.97c.02,4.44-.31,7.98-.99,10.62-.68,2.67-1.83,4.92-3.45,6.76-1.68,1.87-3.78,3.35-6.3,4.45-2.55,1.13-5.12,1.7-7.73,1.7-4.76.02-8.79-1.79-12.1-5.41-1.19,3.53-3.28,6.31-6.28,8.36-2.97,2.07-6.43,3.12-10.38,3.13-5.19.02-9.58-1.8-13.17-5.45-2.21-2.2-3.76-4.67-4.63-7.42-.84-3.01-1.27-6.77-1.29-11.3l-.06-15.17Zm9.45,9.97l.02,6.19c.02,4.52.92,7.84,2.7,9.96,1.93,2.23,4.37,3.34,7.32,3.32,2.86-.01,5.27-1.09,7.21-3.25,1.91-2.1,2.86-5.84,2.83-11.23l-.02-5.07-20.07.08Zm28.44-.11v3.14c.03,3.72.86,6.45,2.51,8.18,1.65,1.73,4.09,2.58,7.29,2.57,3.12-.01,5.49-.91,7.1-2.69,1.61-1.78,2.41-4.36,2.4-7.74v-3.52s-19.31.07-19.31.07Z"/>
    <path class="cls-5" d="m1028.09,638.28l-65.92-7.44,1.12-9.95,65.93,7.44-1.12,9.95Z"/>
    <path class="cls-5" d="m1021.95,674.81l-55.67-11.95-4.09,19.07-9.2-1.97,6.2-28.86,64.87,13.92-2.1,9.79Z"/>
    <path class="cls-5" d="m1008.92,723.07l-63.24-20.06,3.03-9.54,63.24,20.06-3.03,9.54Z"/>
    <path class="cls-5" d="m939.53,722.04l60.07,28.17-5.91,12.6c-2.83,6.04-5.67,10.54-8.5,13.48-2.93,3.21-6.51,5.69-10.75,7.44-8.56,3.55-17.45,3.16-26.65-1.16-9.23-4.33-15.19-11.06-17.87-20.2-1.33-4.58-1.72-8.91-1.17-12.98.44-3.84,2.09-8.81,4.95-14.91l5.84-12.45Zm4.27,13.06l-1.92,4.08c-1.91,4.07-3.07,7.66-3.48,10.76-.36,3.12-.06,6.24.89,9.34,1.98,6.37,6.24,11.09,12.77,14.15,6.59,3.09,12.96,3.39,19.13.9,5.52-2.25,10.09-7.25,13.71-14.97l1.92-4.08-43.03-20.18Z"/>
    <path class="cls-5" d="m901.92,820.66l16.31-23.25-8.94-15.31,6.19-8.83,38.86,67.37-75.91-14.58,6.29-8.97,17.19,3.56Zm10.05,2.06l24.12,4.9-12.54-21.4-11.58,16.5Z"/>
    <path class="cls-5" d="m870.3,834.5l46.51,47.31-9.93,9.76c-4.76,4.68-8.98,7.9-12.66,9.68-3.87,1.99-8.09,3.07-12.67,3.23-9.26.35-17.46-3.11-24.58-10.36-7.15-7.27-10.39-15.66-9.72-25.15.34-4.76,1.48-8.95,3.42-12.58,1.75-3.45,5.03-7.53,9.83-12.25l9.8-9.64Zm-.54,13.73l-3.22,3.16c-3.21,3.15-5.54,6.11-7,8.87-1.42,2.8-2.23,5.82-2.42,9.06-.36,6.66,1.99,12.57,7.05,17.71,5.1,5.19,10.97,7.69,17.62,7.5,5.96-.19,11.98-3.28,18.07-9.27l3.22-3.16-33.32-33.89Z"/>
  </g>
  <path class="cls-1" d="m419.79,282.65c5.43-3.24,10.97-6.36,16.6-9.31,3.67-1.79,5.04-2.13,2.84-.44-2.89,2.52-10.13,6.9-16.29,9.75-5.78,2.85-7.93,3.3-4.88,1.12.59-.39,1.16-.73,1.73-1.12Zm65-30.17h-12.16v4.44h12.16v-4.44Zm-207.99,200.16c-1.53,3.99-3.01,8.04-4.4,12.11,1.21-3.19,2.47-6.69,3.87-10.48.24-.65.48-1.27.53-1.63Zm16.16-33.68c2.35-2.59,6.91-10.14,9.79-16.29,2.87-5.78,3.29-7.91,1.11-4.88-.37.6-.72,1.17-1.28,2.02-3.22,5.35-6.27,10.77-9.18,16.29-1.96,3.97-2.28,5.35-.44,2.85Zm211.15-161.95c8.15-1.45,15.78-4.98,16.87-7.68,1.2-2.36-3.76-2.93-11.39-1.4-7.26,1.59-14.82,4.64-16.55,6.93-1.62,2.59,3.24,3.68,11.07,2.15Zm51.75-19.04c7.77-.7,14.46-1.92,14.76-2.52.31-.13-.27-.16-1.17-.13-8.05.6-16,1.48-23.87,2.59-.66.13-1.34.26-1.33.29-1.29.65,4.19.57,11.61-.23Zm-297.73,285.96c-.09.34-.17.65-.34,1.66-1.12,7.7-1.97,15.49-2.57,23.32-.08,1.35-.03,1.71.08,1.71.63-.62,1.87-7.34,2.54-14.74.86-7.76.86-12.92.29-11.96Zm288.23-248.94c9.4-.6,17.16-5.16,17.6-10.01.51-4.52-6.19-7.5-15.14-6.85-8.63.73-16.31,4.77-17.35,9.26-.89,4.82,5.75,8.3,14.88,7.6Zm53.27-26.54c8.8.18,15.49-2.1,14.99-4.88-.18-2.39-7.13-4.28-15.19-4.46-8.04,0-14.71,1.74-14.97,4.13-.25,2.77,6.68,5.21,15.17,5.21Zm55.01-8.67s-.33-.08-.33-.13c-8.3-1.48-16.74-2.64-25.26-3.5-.69-.05-.69,0-.7.05.98.57,7.65,1.89,15.06,2.77,7.4,1.04,12.52,1.33,11.23.8Zm-398.54,368.99c-.11-.34-.11,0-.09.37h-.02c.87,8.51,2.03,16.92,3.51,25.27q.11.31.12.31c.52,1.3.3-3.5-.79-11.23-.87-7.4-2.21-14.09-2.74-14.71Zm12.22-28.75c-.01-8.87-2.44-15.8-5.21-15.54-2.38-.08-4.14,6.59-4.14,15.02.17,8.07,2.09,15,4.46,15.2,2.77.47,5.05-6.2,4.89-14.69Zm270.21-224.4c10.3-.39,19.09-7.65,19.42-16.03.23-8.09-7.58-14.19-17.58-13.72-10.09.59-18.73,7.45-19.38,15.49-.59,8.3,7.07,14.82,17.54,14.27Zm60.42-47.22c9.86.11,17.8-5.42,17.51-12.17-.34-6.41-8.1-11.55-17.69-11.65-9.56,0-17.46,5.06-17.72,11.47-.22,6.75,7.79,12.35,17.9,12.35Zm35.35-43.69c.63,4.77,8.61,9.44,17.76,10.14,8.9.8,15.37-2.52,14.56-7.19-1.26-4.44-8.92-8.51-17.57-9.45-8.65-.75-15.14,2.08-14.75,6.49Zm59.8-6.78c7.51,1.66,12.03.83,10.37-1.58-2.1-2.15-9.32-5.14-16.55-6.98-7.58-1.74-12.18-1.4-10.67.83,1.4,2.57,9.02,6.15,16.85,7.73Zm-424.05,399.37c-2.23-1.53-2.47,3.43-.82,10.69,1.83,7.21,4.82,14.42,7,16.55,2.5,1.94,3.22-2.88,1.57-10.38-1.59-7.83-5.15-15.46-7.74-16.87Zm368.09-318.86c.58,8.38,9.1,15.59,19.57,16.11,10.2.55,17.88-5.81,17.16-14.06-.75-7.99-9.39-14.87-19.11-15.46-10.11-.57-17.92,5.37-17.63,13.41Zm52.3-37.91c1.04,6.51,9.5,12.92,18.79,14.17,8.86,1.22,15.1-2.98,13.6-9.37-1.48-6.07-9.81-12.06-18.42-13.49-8.86-1.35-15.23,2.44-13.97,8.69Zm57.31-9.96c7.6,2.26,11.66.44,9.2-3.84-2.4-3.89-9.98-8.79-17-11.13-7.37-2.31-11.6-.93-9.53,3.17,1.9,4.39,9.67,9.73,17.32,11.81Zm7.59-15.54c3.05,2.21,10.01,6.46,16.04,9.6,3.86,2.15,5.71,3.03,5.49,2.75-7.35-4.67-14.91-9.05-22.62-13.18-.33-.11-.07.13,1.09.83Zm-460.47,460.37c-.56-.83-.93-1.4-.82-1.09,4.09,7.73,8.49,15.28,13.18,22.65.27.21-.61-1.63-2.75-5.5-3-5.74-7.38-13-9.6-16.06Zm3.75-24.88c-4.11-2.1-5.49,2.13-3.18,9.5,2.34,7.03,7.26,14.61,11.13,17.02,4.28,2.46,6.1-1.58,3.98-8.93-2.07-7.65-7.56-15.72-11.93-17.59Zm400.54-319.25c.67,9.5,9.47,17.83,19.72,18.6,10.04.8,17.28-6.3,16.39-15.62-.96-9.11-9.69-17.23-19.42-18.13-9.9-.86-17.42,5.86-16.68,15.15Zm62.11-54.41c-8.36-1.55-14.17,3.14-12.85,10.69,1.46,7.91,9.8,15.57,18.62,17.02,8.69,1.61,14.01-3.63,12.3-11.31-1.58-7.24-9.66-14.56-18.07-16.4Zm40.09-2.57c6.78,2.42,9.86-.52,7.38-6.07-2.71-5.4-9.89-11.7-16.46-14.48-6.65-2.52-10.32-.21-8.04,5.35,2.27,5.91,10.04,12.84,17.12,15.2Zm17.63-13.2c4.69,3.35,5.43,3.09,1.84-.42-4.73-4.23-9.57-8.33-14.53-12.27-4.46-3.35-5.53-3.5-2.23-.1,3.12,3.66,9.81,9.39,14.91,12.79Zm-490.86,463.06c-3.41-3.3-3.27-2.21.1,2.26,3.95,4.96,8.03,9.78,12.25,14.53,3.51,3.58,3.78,2.83.42-1.87-3.17-4.85-9.11-11.78-12.77-14.92Zm10.97-19.56c-5.75-2.54-8.07,1.14-5.53,7.78,2.77,6.57,9.07,13.75,14.46,16.45,5.55,2.49,8.48-.6,6.07-7.37-2.37-7.08-9.08-14.61-15.01-16.87Zm45.31-17.46c-1.31-8.61-9.14-17.15-16.9-18.39-7.68-1.53-12.38,4.25-10.65,12.87,1.66,8.17,8.96,16.24,16.41,18.03,7.68,1.71,12.74-3.81,11.15-12.51Zm390.52-313.16c-9.32-.91-16.42,6.33-15.63,16.37.75,10.25,9.1,19.07,18.59,19.72,9.3.75,16.02-6.74,15.17-16.68-.91-9.7-9.02-18.45-18.12-19.41Zm29.69-31.75c1.46,8.82,9.12,17.17,17.03,18.63,7.54,1.32,12.25-4.49,10.68-12.84-1.82-8.41-8.94-16.27-16.37-18.09-7.68-1.71-12.76,3.81-11.34,12.3Zm45.49-17.18c5.57,2.28,7.89-1.38,5.36-8.04-2.55-6.3-9.05-13.75-14.24-16.21-5.75-2.72-8.48.6-6.08,7.37,2.16,6.85,9.07,14.61,14.97,16.89Zm11.03-19.54c3.21,3.04,3.05,1.95-.34-2.54-3.93-4.98-8-9.81-12.22-14.5-3.28-3.35-3.54-2.59-.2,2.08,3.16,4.88,8.89,11.55,12.75,14.97Zm-490.8,462.99c-4.69-3.35-5.43-3.06-2.1.21,4.72,4.2,9.56,8.28,14.5,12.22,4.5,3.38,5.86,3.74,2.54.34-3.14-3.66-10.08-9.6-14.95-12.77Zm17.62-13.23c-6.78-2.42-10.11.34-7.39,6.07,2.73,5.42,9.92,11.68,16.23,14.24,6.65,2.54,10.31.23,8.04-5.35-2.28-5.91-9.81-12.61-16.89-14.97Zm39.84-2.8c8.62,1.71,14.4-3.01,12.86-10.69-1.46-7.91-9.81-15.57-18.64-17.04-8.47-1.4-14,3.66-12.27,11.34,1.8,7.45,9.9,14.74,18.05,16.4Zm416.35-298.68c-.65-9.96-7.51-18.63-15.5-19.38-8.26-.73-14.62,6.95-14.08,17.17.51,10.46,7.77,19.22,16.09,19.56,8.05.29,14-7.5,13.49-17.36Zm10.42-53.45c1.12,9.03,7.54,17.49,14.04,18.52,6.25,1.27,10.04-5.08,8.7-13.93-1.41-8.64-7.28-16.68-13.47-18.47-6.26-1.22-10.59,4.75-9.28,13.88Zm35.97-21.15c3.97,1.79,5.35-2.44,3.05-9.81-2.33-7.03-7.23-14.61-11.11-17.02-4.3-2.47-6.1,1.58-3.84,9.21,2.05,7.63,7.41,15.41,11.9,17.62Zm3.62-25.19c.73,1.14.95,1.4,1,1.4-4.15-7.83-8.6-15.51-13.33-22.96-.27-.21.79,1.92,2.93,5.78,2.99,5.73,7.35,13.02,9.4,15.78Zm-460.37,460.28c-2.75-2.05-10.03-6.43-15.76-9.42-3.86-2.13-6.01-3.22-5.78-2.93,7.45,4.75,15.11,9.19,22.93,13.36.03-.08-.24-.29-1.39-1.01Zm7.59-15.54c-7.63-2.26-11.39-.29-9.2,3.84,2.68,4.05,10.27,8.95,17.29,11.28,7.07,2.13,11.6.91,9.51-3.22-2.2-4.49-9.95-9.83-17.6-11.91Zm57.57-9.91c-1.33-6.61-9.51-12.92-18.82-14.14-9.11-1.32-15.08,3.01-13.57,9.39,1.48,6.05,9.53,11.93,18.43,13.47,8.58,1.22,14.94-2.57,13.96-8.72Zm330.57-237.73c-8.39.34-15.65,9.13-16.06,19.43-.53,10.46,5.98,18.13,14.28,17.51,8.03-.65,14.89-9.26,15.44-19.12.5-10.25-5.56-18.06-13.66-17.83Zm31.16-40.47c0,9.57,5.6,17.59,12.34,17.36,6.43-.26,11.46-8.15,11.48-17.44-.1-9.57-5.23-17.33-11.65-17.69-6.74-.29-12.26,7.62-12.17,17.77Zm33.59-53.37c.72,9.16,5.34,17.15,10.14,17.8,4.41.36,7.22-6.1,6.47-14.76-.91-8.64-4.99-16.29-9.34-17.25-4.75-1.14-8.07,5.32-7.28,14.22Zm24.76-24.83c2.16,1.19,2.48-3.42.83-10.69-1.8-7.21-4.89-14.76-6.95-16.55-2.51-1.97-3.34,2.54-1.59,10.38,1.58,7.83,5.05,15.12,7.71,16.86Zm-423.69,399.01c-7.81-1.74-12.32-.91-10.36,1.61,1.79,2.05,9.33,5.14,16.56,6.95,7.27,1.64,12.19,1.4,10.69-.83-1.42-2.57-9.04-6.15-16.89-7.73Zm59.49-6.9c-.62-4.8-8.31-9.37-17.47-10.07-9.18-.86-15.65,2.46-14.53,7.21.96,4.36,8.6,8.43,17.26,9.34,8.64.75,15.46-2.02,14.74-6.49Zm159.05-148.12c-10.22.65-19.11,9.05-19.9,18.73-.5,9.29,7.11,16.16,17.06,15.36,9.98-.93,18.53-8.95,19.54-18.24.93-9.5-6.49-16.63-16.7-15.85Zm61.21-62.42c-9.57.62-17.98,9.52-18.72,19.9-.65,10.04,6.51,17.46,15.85,16.68,9.29-1.01,17.42-9.76,18.24-19.54.78-9.94-5.99-17.75-15.37-17.05Zm92.3-11.36c-6.68,1.12-13.09,9.5-14.21,18.94-1.23,9.26,3.29,15.44,9.87,13.96,6.11-1.2,12.08-9.47,13.42-18.29,1.26-9.08-2.74-15.62-9.08-14.61Zm36.74-57.57c-4.85.44-9.42,8.2-10.02,17.59-.69,9.13,2.79,15.8,7.61,14.89,4.47-1.04,8.52-8.71,9.26-17.36.61-8.61-2.33-15.62-6.84-15.12Zm21.4-50.33c-2.75-.16-5.03,6.51-4.9,14.99.02,8.15,2.45,15.07,5.21,14.84,2.39-.26,4.14-6.93,4.12-14.63-.15-8.07-2.03-14.66-4.44-15.2Zm7.43-14.37c-.84-8.54-2.02-16.97-3.5-25.32-.04,0-.11-.31-.11-.31-.52-1.3-.23,3.81.78,11.23.87,7.4,2.25,14.43,2.78,15.05.05,0,.09,0,.05-.65Zm-387.24,369.92c-7.39-1.01-12.52-1.3-11.22-.78q.32.05.32.1c8.33,1.48,16.76,2.65,25.29,3.5.67.03,1.01.03.67-.05-.63-.54-7.32-1.87-15.06-2.78Zm151.6-53.73c-9.08,1.25-15.64-2.75-14.61-9.08.21-1.3.7-2.58,1.42-3.82l-8.28,8.28v16.87l-13.44,13.44h-8.72v13.01l-10.72,10.72h-6.01l-5.44,5.44c.58-.06,1.17-.12,1.77-.17,7.74-.86,12.88-.86,11.93-.29-.33.1-.99.21-1.66.34-4.51.65-9.04,1.2-13.6,1.68l-1.56,1.56c-11.97,1.63-24.13,2.65-36.45,3l-20.43-20.43v-9.2l-21.21-21.21h-18.2l-17.83-17.83h-7.8l-19.24-19.24v-11.85l-10.46-10.46v-10.11l7.62-7.62v-7.29l-6.43-6.43v-11.15l-7.65-7.65-5.22,5.22h-7.58l-4.43-4.43h-4.86l-6.01-6.01h-6.86l-24.03-24.03h-12.57l-15.46-15.46h-31.43l-17.32-17.32c-.87,5.65-4.47,9.05-9.37,7.92-6.06-1.48-12.06-9.83-13.47-18.45-1.35-8.85,2.42-15.23,8.68-13.96.04,0,.07.02.11.02v-4.06l-10.18-10.18v-20.02l-5.15-5.15v-15.78l-8.81-8.81v-18.3h-3.95v23.96l8.07,8.07v15.9l4.69,4.69v11.33l-10.76-10.76v-1.8c-.99,4.93-3.6,7.83-6.9,7.05-4.36-.93-8.5-8.9-9.41-17.57-.77-8.64,2.04-15.12,6.51-14.42.87.06,1.73.38,2.57.91v-23.04l-7.75-7.75v-44.85l-7.2-7.2v-35.18c-1.02,1.71-2.06,2.93-3.01,3.42-2.36,1.19-2.84-4.1-1.4-11.39,1.69-7.58,4.65-14.82,6.93-16.55,2.71-1.94,3.79,2.93,2.17,11.08-.07.38-.14.76-.22,1.14l2.86-2.86v-13.31l14.72-14.72v-23.02l7.87-7.87v-16.8l13.51-13.51v-8.86l9.45-9.45v-9.01l13.01-13.01v-4.86h-6.72v5l-15.01,15.01v-5.15l9.15-9.15v-7.47c25.24-28.32,55.11-52.42,88.41-71.13l6.25,6.25-11.73,11.73v6.01h7.72l3.72,3.72h8.72v-7.29l11.87-11.87h8.87l11.73-11.73v14.87h29.74l9.15,9.15v13.16h6.86l8.3,8.3-5.42,5.42v14.28l-9.15-9.15-4.02,4.02,8.01,8.01v6.29h-10.87l6.86,6.86v5.09h-6.35l-6.24-6.24h-9.44v-6.01l-6.58-6.58,13.73-13.73-5.15-5.15v-11.44h-8.52v12.21l-5.77,5.77h-8.27l-4.94,4.94,3.38,3.38v8.39l-8.48,8.48h-5.43l-4.29-4.29-29.17,29.17v20.02h9.15l17.16,17.16v18.3h9.02v-20.26l4.33-4.33v-6.49l11.25-11.25-6.29-6.29v-16.02l4.58-4.58v-9.01h12.44l9.87,9.87h9.72v3.15h-5.15v10.3h6.86l13.44-13.44,7.72,7.72v14.87l12.58,12.58v9.15l13.73,13.73v.5c12.55,2.15,21.93,12.54,21.67,25.44-.05,5.57-1.86,10.8-4.92,15.18,7.65,7.39,12.95,12.54,23.36,22.69,3.2-2.09,6.84-3.57,10.75-4.27.54-32.76.71-42.46,1.22-68.04-12.58-2.37-21.91-12.42-21.67-24.35.24-13.23,12.44-23.79,27.5-23.84,14.86.13,27.22,10.74,27.49,24,.2,12.1-9.45,22.26-22.41,24.33-.34,25.51-.47,35.15-.93,68.08,3.59.77,6.93,2.19,9.9,4.13,11.41-11.11,16.91-16.45,25.24-24.48-3.06-4.38-4.89-9.6-4.98-15.17-.18-14.69,11.97-26.1,27.22-25.66,15.09.55,27.76,12.64,28.38,27.19.52,14.79-11.53,26.59-26.96,26.23-5.77-.1-11.18-1.89-15.7-4.87-9.36,9.12-15.22,14.86-25.16,24.63,3.07,4.5,4.88,9.91,4.9,15.73.07,14.05-10.13,25.74-23.61,28.17-.43,28.69-.58,38.38-1.12,73.42,3.21.68,6.22,1.88,8.93,3.52,10.52-10.4,19.04-18.81,26.37-26.07-2.72-4.41-4.3-9.62-4.3-15.22,0-16,12.87-28.95,28.68-28.82,5.62.05,10.85,1.74,15.25,4.62,7.07-7.08,14.98-15.03,24.99-25.08-2.89-4.48-4.62-9.79-4.71-15.47-.35-15.46,11.47-27.5,26.35-26.85,14.44.52,26.54,13.21,27.09,28.3.42,15.23-11.03,27.37-25.7,27.19-5.69-.1-11.01-2.01-15.45-5.2-9.71,9.83-17.59,17.81-24.6,24.87,3.23,4.68,5.13,10.37,5.14,16.49-.02,15.78-12.65,28.69-28.34,28.8-6.24.02-12.02-1.98-16.73-5.39-7.25,7.18-15.52,15.36-25.72,25.42,3.5,4.75,5.56,10.59,5.53,16.91-.08,13.91-10.26,25.41-23.64,27.87-.42,27.13-.58,36.67-1.15,68.05,3.41.63,6.58,1.82,9.39,3.46,9.28-8.86,17.53-16.73,24.98-23.86-2.63-4.02-4.13-8.83-4.08-14.05.22-15.02,13.04-27.53,28.69-27.81,5.47-.11,10.52,1.31,14.74,3.85,8.9-8.73,17-16.82,25.54-25.51-2.55-4.22-3.98-9.28-3.87-14.76.27-15.65,12.75-28.49,27.79-28.7,5.26-.12,10.09,1.38,14.13,4.04,7.1-7.44,14.96-15.69,23.83-25.02-2.57-4.32-4.08-9.51-4.07-15.08-.07-15.46,11.13-27.76,24.8-27.32,13.23.26,23.82,12.45,23.94,27.32-.05,14.84-10.62,27.04-23.86,27.29-5.22.11-10.08-1.63-14.1-4.67-8.63,9.13-16.34,17.28-23.35,24.66,2.99,4.5,4.68,10.05,4.54,16.04-.49,15.1-12.61,27.84-27.18,28.44-5.85.21-11.23-1.53-15.6-4.65-8.49,8.67-16.43,16.63-24.91,24.95,3.12,4.36,4.86,9.73,4.65,15.56-.56,14.58-13.15,26.62-28.4,27.22-6.01.15-11.55-1.54-16.04-4.55-7.34,6.95-15.44,14.6-24.56,23.2,3.15,4.06,4.96,8.99,4.86,14.3-.03,1.53-.22,3.03-.55,4.48l6.53,6.53v9.34l-3.62,3.62v7.09h11.21l7.09-7.09h12.77l4.96,4.96h19.82l4.77,4.77h9.33l8.76,8.76v15.23l-9.94,9.94v9.87l-.05.05c3.17-2.04,7.03-3.5,11.09-3.99,9.27-1.25,15.45,3.3,14.23,9.73-1.46,6.25-9.72,12.22-18.53,13.57Zm-402.92-231.9l-1.98-1.98c.9,2.12,1.58,4.54,1.98,7.1v-5.12Zm263.92-49.03c0,6.25-1.94,12.01-5.26,16.73,6.62,6.75,14.22,14.49,23.47,23.9,3.42-2.46,7.4-4.2,11.73-4.99.47-33.71.62-43.91,1.08-73.43-13.07-2.77-22.82-14.3-22.76-28.03.04-5.83,1.85-11.23,4.91-15.72-9.14-8.98-14.74-14.46-23.32-22.83-4.54,2.97-9.97,4.75-15.77,4.85-3.12.06-6.09-.38-8.85-1.24l-18.44,18.44h-10.2v-12.68l-9.66,9.66c6.66,4.85,10.91,12.94,10.71,22.25-.1,5.86-1.92,11.33-4.94,15.88,8.93,9.28,16.14,16.77,22.59,23.44,4.55-3.2,10.07-5.09,16.02-5.13,15.85-.1,28.71,12.82,28.69,28.9Zm-57.55-115.15l10.58,10.58,2.07-2.07c-3.83-3.59-6.51-8.3-7.55-13.62l-5.11,5.11Zm-16.97,4.39l15.61-15.6h6.03c.1-1.86.4-3.68.88-5.43h-10.79l-11.73,11.73v9.31Zm-49.35,131.71c6.6,6.99,12.59,13.33,18.13,19.17,3.97-2.56,8.7-4,13.83-3.93,15,.23,27.5,13.08,27.82,28.72.1,5.41-1.3,10.4-3.81,14.58,7.78,7.91,15.34,15.47,23.65,23.63,4.18-2.51,9.18-3.91,14.63-3.79,15.52.24,28.51,12.77,28.62,27.74.12,5.22-1.35,10.01-3.97,14.01,6.97,6.68,14.65,14.02,23.2,22.18,2.98-1.76,6.37-3.02,10.05-3.63.38-30.93.49-39.89.86-68.11-12.94-2.75-22.69-14.07-22.82-27.71-.02-5.48,1.52-10.61,4.21-14.97-9.44-9.59-17.17-17.43-23.96-24.36-4.42,2.79-9.64,4.39-15.25,4.35-15.65-.05-28.3-12.94-28.37-28.85.01-5.79,1.71-11.18,4.61-15.71-6.48-6.76-13.75-14.36-22.58-23.62-4.37,3.03-9.58,4.84-15.14,4.93-5.46.06-10.47-1.59-14.59-4.45h-9.94v6.58l7.15,7.15v17.16l-13.16,13.16v12.58l-3.18,3.18Zm80.03,126.66c-7.28-4.94-12.22-12.95-12.6-21.9-.21-5.81,1.5-11.17,4.59-15.53-7.94-7.78-15.34-15.17-23.07-23.03-4.34,3.1-9.68,4.83-15.48,4.62-14.54-.62-26.63-13.28-27.18-28.38-.17-5.99,1.5-11.5,4.47-15.97-5.55-5.85-11.53-12.18-18.09-19.13l-2.5,2.5,6.44,6.43v11.73l7.15,7.15v8.72h-7.58l-8.15-8.15v-8.87l-18.59-18.59h-15.75v12.32l-3.55,3.55-6.43-6.43h-14.01l-8.87,8.87v32.6l5.72,5.72v11.44l21.31,21.31,6.43-6.43v-11.15l7.72-7.72h8.01l6.29,6.29v35.44h18.33l7.46,7.46v19.97l15.3,15.3,5.81-5.81h11.15l3.72,3.72h7.44v-8.58l19.45-19.45v15.44h6.86v-15.44h8.22Zm38.96,7.75l.11-.11c-2.54-2.4-5-4.73-7.37-6.98-4.49,2.98-10.03,4.65-16.03,4.49-5.65-.2-10.94-2.01-15.39-4.96v11.33l5.23-5.23v9.62h15.86l8.16-8.16h9.43Zm10.59,19.08h2.33c.72-1.61,1.63-3.12,2.7-4.54-3.95-3.73-7.71-7.27-11.3-10.67v8.94l6.27,6.27Zm197.88,31.27c-8.99,1.38-17.55,9.21-18.84,17.25-1.41,7.81,4.69,12.69,13.25,11.21,8.61-1.76,16.77-9.16,18.38-16.71,1.55-7.76-4.14-13.1-12.79-11.75Zm56.63-58.3c-8.02,1.3-15.71,9.65-17.06,18.65-1.5,8.88,3.83,14.53,11.6,13,7.72-1.84,14.91-9.78,16.67-18.42,1.48-8.56-3.38-14.63-11.21-13.23Zm75.49-9.58c2.05-7.39.42-12.01-3.8-10.3-4.61,1.82-10.1,9.81-12.03,17.75-2,7.62.06,12.09,4.59,9.73,4.12-2.28,9.02-9.81,11.23-17.18Zm25.74-65.4c-2.76,1.4-6.23,8.71-7.67,16.86-1.53,7.84-.44,12.72,2.16,11.08,2.27-1.74,5.34-9.29,6.93-16.55,1.52-7.63.93-12.58-1.42-11.39Zm13.89-49.66c-.61.29-1.83,7-2.55,14.79-.79,7.39-.85,12.87-.22,11.6.04,0,.17-.67.29-1.35,1.11-7.71,1.97-15.49,2.57-23.37.06-1.33.04-1.97-.09-1.66Zm-248.63,293.78c-7.83,1.37-15.45,4.93-16.87,7.71-1.2,2.36,3.77,2.9,11.39,1.38,7.58-1.69,14.8-4.65,16.55-6.93,1.94-2.7-3.26-3.69-11.08-2.15Zm55.95-33.94c-7.93,1.94-15.9,7.42-17.72,12.06-1.71,4.2,2.9,5.84,10.3,3.79,7.35-2.26,14.89-7.13,17.16-11.26,2.36-4.52-1.83-6.74-9.75-4.59Zm63.9-38.74c2.5-5.91-1.09-9-7.97-6.87-7.39,2.28-15.03,9.11-17.35,15.41-2.07,5.78,1.81,8.48,8.81,5.99,6.67-2.49,14.02-8.92,16.52-14.53Zm43.16-60.01c-6.3,2.34-13.12,9.96-15.4,17.38-2.13,6.87.98,10.46,6.9,7.94,5.58-2.49,12.03-9.83,14.51-16.53,2.47-6.98-.24-10.87-6.01-8.79Zm48.2-29.68c-2.51,2.9-6.9,10.12-9.74,16.29-3.05,6.07-3.47,8.22-1.12,4.88.37-.57.73-1.14,1.1-1.71,3.27-5.45,6.37-10.97,9.33-16.6v-.03c1.79-3.66,2.11-5.01.43-2.83Zm16.64-35.34c-.25.65-.48,1.27-.66,1.92,1.55-3.99,3.03-8.04,4.42-12.14h0c-1.09,2.85-2.47,6.69-3.75,10.22Zm-208.44,202.19c4.06-1.4,8.09-2.85,12.08-4.38-.66.18-1.3.42-1.94.65-3.48,1.27-7.29,2.65-10.14,3.73Zm61.76-30.15c-6.16,2.85-13.4,7.24-15.99,9.6-2.49,1.84-1.13,1.51,2.54-.29,5.63-2.96,11.17-6.07,16.59-9.34.57-.39,1.16-.73,1.73-1.12,3.35-2.34,1.2-1.92-4.87,1.14Zm50.36-38.58c-5.33,3.09-12.21,9-15.36,13.15-3.1,3.74-1.35,3.81,3.46.6,4.67-3.42,11.19-8.9,14.79-12.51,3.4-3.81,2.03-4.33-2.9-1.25Zm44.56-46.81c-3.94,2.91-10.07,10.04-13.15,15.39-3.09,4.9-2.35,6.04,1.46,2.62,3.39-3.35,8.86-9.86,12.28-14.53,3.41-5.09,3.14-6.57-.59-3.48Z"/>
  <g>
    <path class="cls-5" d="m402.76,937.99c3.24,1.62,5.42,4.23,6.54,7.82,1.16,3.58.89,7.06-.79,10.43-1.72,3.45-4.35,5.77-7.9,6.98-3.56,1.23-7.01,1.01-10.35-.66-3.29-1.64-5.54-4.27-6.75-7.88-1.14-3.61-.87-7.1.81-10.47,1.72-3.44,4.37-5.76,7.94-6.96,3.61-1.21,7.11-.96,10.51.74Z"/>
    <path class="cls-5" d="m488.16,985.19c1.36-9.13,5.87-16.48,13.54-22.04,7.64-5.56,16.14-7.65,25.49-6.26,9.25,1.37,16.68,5.86,22.31,13.45,5.66,7.6,7.8,16.03,6.42,25.3-1.39,9.33-5.9,16.75-13.53,22.26-7.66,5.53-16.23,7.59-25.7,6.19-8.38-1.24-15.47-5.26-21.27-12.05-6.39-7.51-8.81-16.45-7.26-26.85Zm9.86,1.59c-1.07,7.17.47,13.43,4.6,18.76,4.1,5.33,9.29,8.47,15.57,9.4,6.81,1.01,12.9-.49,18.28-4.5,5.38-4.07,8.59-9.52,9.6-16.35,1.03-6.92-.42-13.06-4.35-18.43-3.9-5.39-9.23-8.59-16.01-9.59-6.75-1-12.8.5-18.15,4.52-5.34,3.96-8.52,9.36-9.53,16.19Z"/>
    <path class="cls-5" d="m608.12,971.87l-7.98,4.84c-1.53-2.59-2.97-4.27-4.34-5.05-1.42-.89-3.26-1.33-5.49-1.3-2.75.03-5.02.83-6.81,2.41-1.8,1.55-2.68,3.48-2.66,5.81.03,3.2,2.44,5.75,7.21,7.66l6.57,2.61c5.35,2.1,9.27,4.69,11.76,7.76,2.5,3.08,3.77,6.87,3.81,11.37.06,6.03-1.9,11.04-5.88,15.01-4.01,4.01-9.01,6.04-15.02,6.1-5.69.06-10.41-1.58-14.16-4.91-3.69-3.33-6.01-8.05-6.98-14.16l10-2.31c.49,3.85,1.31,6.5,2.46,7.96,2.07,2.81,5.05,4.2,8.96,4.16,3.09-.03,5.64-1.09,7.66-3.18,2.02-2.09,3.01-4.72,2.98-7.89-.01-1.27-.2-2.44-.57-3.5-.36-1.06-.93-2.03-1.69-2.91-.76-.88-1.74-1.71-2.93-2.48-1.2-.77-2.62-1.5-4.27-2.19l-6.36-2.57c-9.02-3.7-13.56-9.21-13.63-16.52-.05-4.93,1.79-9.07,5.52-12.42,3.73-3.38,8.4-5.1,14.01-5.15,7.56-.08,13.5,3.54,17.83,10.86Z"/>
    <path class="cls-5" d="m640.42,967.78l7.09,55.84-9.82,1.25-7.09-55.84-14.96,1.9-1.17-9.23,39.7-5.04,1.17,9.23-14.92,1.89Z"/>
    <path class="cls-5" d="m743.2,948.76c3.34-1.41,6.74-1.36,10.19.13,3.47,1.46,5.94,3.92,7.4,7.39,1.49,3.55,1.54,7.06.15,10.54-1.38,3.5-3.8,5.98-7.24,7.43-3.4,1.43-6.85,1.42-10.38-.01-3.48-1.48-5.95-3.96-7.42-7.43-1.49-3.55-1.53-7.07-.11-10.55,1.44-3.52,3.9-6.02,7.4-7.49Z"/>
  </g>
</svg>