<?xml version="1.0" encoding="UTF-8"?>
<svg id="Capa_1" data-name="Capa 1" xmlns="http://www.w3.org/2000/svg" viewBox="0 0 1200 1200">
  <defs>
    <style>
      .cls-1 {
        fill-rule: evenodd;
      }

      .cls-1, .cls-2 {
        fill: #f6f5f1;
        stroke-width: 0px;
      }
    </style>
  </defs>
  <path class="cls-1" d="m419.79,282.65c5.43-3.24,10.97-6.36,16.6-9.31,3.67-1.79,5.04-2.13,2.84-.44-2.89,2.52-10.13,6.9-16.29,9.75-5.78,2.85-7.93,3.3-4.88,1.12.59-.39,1.16-.73,1.73-1.12Zm65-30.17h-12.16v4.44h12.16v-4.44Zm-207.99,200.16c-1.53,3.99-3.01,8.04-4.4,12.11,1.21-3.19,2.47-6.69,3.87-10.48.24-.65.48-1.27.53-1.63Zm16.16-33.68c2.35-2.59,6.91-10.14,9.79-16.29,2.87-5.78,3.29-7.91,1.11-4.88-.37.6-.72,1.17-1.28,2.02-3.22,5.35-6.27,10.77-9.18,16.29-1.96,3.97-2.28,5.35-.44,2.85Zm211.15-161.95c8.15-1.45,15.78-4.98,16.87-7.68,1.2-2.36-3.76-2.93-11.39-1.4-7.26,1.59-14.82,4.64-16.55,6.93-1.62,2.59,3.24,3.68,11.07,2.15Zm51.75-19.04c7.77-.7,14.46-1.92,14.76-2.52.31-.13-.27-.16-1.17-.13-8.05.6-16,1.48-23.87,2.59-.66.13-1.34.26-1.33.29-1.29.65,4.19.57,11.61-.23Zm-297.73,285.96c-.09.34-.17.65-.34,1.66-1.12,7.7-1.97,15.49-2.57,23.32-.08,1.35-.03,1.71.08,1.71.63-.62,1.87-7.34,2.54-14.74.86-7.76.86-12.92.29-11.96Zm288.23-248.94c9.4-.6,17.16-5.16,17.6-10.01.51-4.52-6.19-7.5-15.14-6.85-8.63.73-16.31,4.77-17.35,9.26-.89,4.82,5.75,8.3,14.88,7.6Zm53.27-26.54c8.8.18,15.49-2.1,14.99-4.88-.18-2.39-7.13-4.28-15.19-4.46-8.04,0-14.71,1.74-14.97,4.13-.25,2.77,6.68,5.21,15.17,5.21Zm55.01-8.67s-.33-.08-.33-.13c-8.3-1.48-16.74-2.64-25.26-3.5-.69-.05-.69,0-.7.05.98.57,7.65,1.89,15.06,2.77,7.4,1.04,12.52,1.33,11.23.8Zm-398.54,368.99c-.11-.34-.11,0-.09.37h-.02c.87,8.51,2.03,16.92,3.51,25.27q.11.31.12.31c.52,1.3.3-3.5-.79-11.23-.87-7.4-2.21-14.09-2.74-14.71Zm12.22-28.75c-.01-8.87-2.44-15.8-5.21-15.54-2.38-.08-4.14,6.59-4.14,15.02.17,8.07,2.09,15,4.46,15.2,2.77.47,5.05-6.2,4.89-14.69Zm270.21-224.4c10.3-.39,19.09-7.65,19.42-16.03.23-8.09-7.58-14.19-17.58-13.72-10.09.59-18.73,7.45-19.38,15.49-.59,8.3,7.07,14.82,17.54,14.27Zm60.42-47.22c9.86.11,17.8-5.42,17.51-12.17-.34-6.41-8.1-11.55-17.69-11.65-9.56,0-17.46,5.06-17.72,11.47-.22,6.75,7.79,12.35,17.9,12.35Zm35.35-43.69c.63,4.77,8.61,9.44,17.76,10.14,8.9.8,15.37-2.52,14.56-7.19-1.26-4.44-8.92-8.51-17.57-9.45-8.65-.75-15.14,2.08-14.75,6.49Zm59.8-6.78c7.51,1.66,12.03.83,10.37-1.58-2.1-2.15-9.32-5.14-16.55-6.98-7.58-1.74-12.18-1.4-10.67.83,1.4,2.57,9.02,6.15,16.85,7.73Zm-424.05,399.37c-2.23-1.53-2.47,3.43-.82,10.69,1.83,7.21,4.82,14.42,7,16.55,2.5,1.94,3.22-2.88,1.57-10.38-1.59-7.83-5.15-15.46-7.74-16.87Zm368.09-318.86c.58,8.38,9.1,15.59,19.57,16.11,10.2.55,17.88-5.81,17.16-14.06-.75-7.99-9.39-14.87-19.11-15.46-10.11-.57-17.92,5.37-17.63,13.41Zm52.3-37.91c1.04,6.51,9.5,12.92,18.79,14.17,8.86,1.22,15.1-2.98,13.6-9.37-1.48-6.07-9.81-12.06-18.42-13.49-8.86-1.35-15.23,2.44-13.97,8.69Zm57.31-9.96c7.6,2.26,11.66.44,9.2-3.84-2.4-3.89-9.98-8.79-17-11.13-7.37-2.31-11.6-.93-9.53,3.17,1.9,4.39,9.67,9.73,17.32,11.81Zm7.59-15.54c3.05,2.21,10.01,6.46,16.04,9.6,3.86,2.15,5.71,3.03,5.49,2.75-7.35-4.67-14.91-9.05-22.62-13.18-.33-.11-.07.13,1.09.83Zm-460.47,460.37c-.56-.83-.93-1.4-.82-1.09,4.09,7.73,8.49,15.28,13.18,22.65.27.21-.61-1.63-2.75-5.5-3-5.74-7.38-13-9.6-16.06Zm3.75-24.88c-4.11-2.1-5.49,2.13-3.18,9.5,2.34,7.03,7.26,14.61,11.13,17.02,4.28,2.46,6.1-1.58,3.98-8.93-2.07-7.65-7.56-15.72-11.93-17.59Zm400.54-319.25c.67,9.5,9.47,17.83,19.72,18.6,10.04.8,17.28-6.3,16.39-15.62-.96-9.11-9.69-17.23-19.42-18.13-9.9-.86-17.42,5.86-16.68,15.15Zm62.11-54.41c-8.36-1.55-14.17,3.14-12.85,10.69,1.46,7.91,9.8,15.57,18.62,17.02,8.69,1.61,14.01-3.63,12.3-11.31-1.58-7.24-9.66-14.56-18.07-16.4Zm40.09-2.57c6.78,2.42,9.86-.52,7.38-6.07-2.71-5.4-9.89-11.7-16.46-14.48-6.65-2.52-10.32-.21-8.04,5.35,2.27,5.91,10.04,12.84,17.12,15.2Zm17.63-13.2c4.69,3.35,5.43,3.09,1.84-.42-4.73-4.23-9.57-8.33-14.53-12.27-4.46-3.35-5.53-3.5-2.23-.1,3.12,3.66,9.81,9.39,14.91,12.79Zm-490.86,463.06c-3.41-3.3-3.27-2.21.1,2.26,3.95,4.96,8.03,9.78,12.25,14.53,3.51,3.58,3.78,2.83.42-1.87-3.17-4.85-9.11-11.78-12.77-14.92Zm10.97-19.56c-5.75-2.54-8.07,1.14-5.53,7.78,2.77,6.57,9.07,13.75,14.46,16.45,5.55,2.49,8.48-.6,6.07-7.37-2.37-7.08-9.08-14.61-15.01-16.87Zm45.31-17.46c-1.31-8.61-9.14-17.15-16.9-18.39-7.68-1.53-12.38,4.25-10.65,12.87,1.66,8.17,8.96,16.24,16.41,18.03,7.68,1.71,12.74-3.81,11.15-12.51Zm390.52-313.16c-9.32-.91-16.42,6.33-15.63,16.37.75,10.25,9.1,19.07,18.59,19.72,9.3.75,16.02-6.74,15.17-16.68-.91-9.7-9.02-18.45-18.12-19.41Zm29.69-31.75c1.46,8.82,9.12,17.17,17.03,18.63,7.54,1.32,12.25-4.49,10.68-12.84-1.82-8.41-8.94-16.27-16.37-18.09-7.68-1.71-12.76,3.81-11.34,12.3Zm45.49-17.18c5.57,2.28,7.89-1.38,5.36-8.04-2.55-6.3-9.05-13.75-14.24-16.21-5.75-2.72-8.48.6-6.08,7.37,2.16,6.85,9.07,14.61,14.97,16.89Zm11.03-19.54c3.21,3.04,3.05,1.95-.34-2.54-3.93-4.98-8-9.81-12.22-14.5-3.28-3.35-3.54-2.59-.2,2.08,3.16,4.88,8.89,11.55,12.75,14.97Zm-490.8,462.99c-4.69-3.35-5.43-3.06-2.1.21,4.72,4.2,9.56,8.28,14.5,12.22,4.5,3.38,5.86,3.74,2.54.34-3.14-3.66-10.08-9.6-14.95-12.77Zm17.62-13.23c-6.78-2.42-10.11.34-7.39,6.07,2.73,5.42,9.92,11.68,16.23,14.24,6.65,2.54,10.31.23,8.04-5.35-2.28-5.91-9.81-12.61-16.89-14.97Zm39.84-2.8c8.62,1.71,14.4-3.01,12.86-10.69-1.46-7.91-9.81-15.57-18.64-17.04-8.47-1.4-14,3.66-12.27,11.34,1.8,7.45,9.9,14.74,18.05,16.4Zm416.35-298.68c-.65-9.96-7.51-18.63-15.5-19.38-8.26-.73-14.62,6.95-14.08,17.17.51,10.46,7.77,19.22,16.09,19.56,8.05.29,14-7.5,13.49-17.36Zm10.42-53.45c1.12,9.03,7.54,17.49,14.04,18.52,6.25,1.27,10.04-5.08,8.7-13.93-1.41-8.64-7.28-16.68-13.47-18.47-6.26-1.22-10.59,4.75-9.28,13.88Zm35.97-21.15c3.97,1.79,5.35-2.44,3.05-9.81-2.33-7.03-7.23-14.61-11.11-17.02-4.3-2.47-6.1,1.58-3.84,9.21,2.05,7.63,7.41,15.41,11.9,17.62Zm3.62-25.19c.73,1.14.95,1.4,1,1.4-4.15-7.83-8.6-15.51-13.33-22.96-.27-.21.79,1.92,2.93,5.78,2.99,5.73,7.35,13.02,9.4,15.78Zm-460.37,460.28c-2.75-2.05-10.03-6.43-15.76-9.42-3.86-2.13-6.01-3.22-5.78-2.93,7.45,4.75,15.11,9.19,22.93,13.36.03-.08-.24-.29-1.39-1.01Zm7.59-15.54c-7.63-2.26-11.39-.29-9.2,3.84,2.68,4.05,10.27,8.95,17.29,11.28,7.07,2.13,11.6.91,9.51-3.22-2.2-4.49-9.95-9.83-17.6-11.91Zm57.57-9.91c-1.33-6.61-9.51-12.92-18.82-14.14-9.11-1.32-15.08,3.01-13.57,9.39,1.48,6.05,9.53,11.93,18.43,13.47,8.58,1.22,14.94-2.57,13.96-8.72Zm330.57-237.73c-8.39.34-15.65,9.13-16.06,19.43-.53,10.46,5.98,18.13,14.28,17.51,8.03-.65,14.89-9.26,15.44-19.12.5-10.25-5.56-18.06-13.66-17.83Zm31.16-40.47c0,9.57,5.6,17.59,12.34,17.36,6.43-.26,11.46-8.15,11.48-17.44-.1-9.57-5.23-17.33-11.65-17.69-6.74-.29-12.26,7.62-12.17,17.77Zm33.59-53.37c.72,9.16,5.34,17.15,10.14,17.8,4.41.36,7.22-6.1,6.47-14.76-.91-8.64-4.99-16.29-9.34-17.25-4.75-1.14-8.07,5.32-7.28,14.22Zm24.76-24.83c2.16,1.19,2.48-3.42.83-10.69-1.8-7.21-4.89-14.76-6.95-16.55-2.51-1.97-3.34,2.54-1.59,10.38,1.58,7.83,5.05,15.12,7.71,16.86Zm-423.69,399.01c-7.81-1.74-12.32-.91-10.36,1.61,1.79,2.05,9.33,5.14,16.56,6.95,7.27,1.64,12.19,1.4,10.69-.83-1.42-2.57-9.04-6.15-16.89-7.73Zm59.49-6.9c-.62-4.8-8.31-9.37-17.47-10.07-9.18-.86-15.65,2.46-14.53,7.21.96,4.36,8.6,8.43,17.26,9.34,8.64.75,15.46-2.02,14.74-6.49Zm159.05-148.12c-10.22.65-19.11,9.05-19.9,18.73-.5,9.29,7.11,16.16,17.06,15.36,9.98-.93,18.53-8.95,19.54-18.24.93-9.5-6.49-16.63-16.7-15.85Zm61.21-62.42c-9.57.62-17.98,9.52-18.72,19.9-.65,10.04,6.51,17.46,15.85,16.68,9.29-1.01,17.42-9.76,18.24-19.54.78-9.94-5.99-17.75-15.37-17.05Zm92.3-11.36c-6.68,1.12-13.09,9.5-14.21,18.94-1.23,9.26,3.29,15.44,9.87,13.96,6.11-1.2,12.08-9.47,13.42-18.29,1.26-9.08-2.74-15.62-9.08-14.61Zm36.74-57.57c-4.85.44-9.42,8.2-10.02,17.59-.69,9.13,2.79,15.8,7.61,14.89,4.47-1.04,8.52-8.71,9.26-17.36.61-8.61-2.33-15.62-6.84-15.12Zm21.4-50.33c-2.75-.16-5.03,6.51-4.9,14.99.02,8.15,2.45,15.07,5.21,14.84,2.39-.26,4.14-6.93,4.12-14.63-.15-8.07-2.03-14.66-4.44-15.2Zm7.43-14.37c-.84-8.54-2.02-16.97-3.5-25.32-.04,0-.11-.31-.11-.31-.52-1.3-.23,3.81.78,11.23.87,7.4,2.25,14.43,2.78,15.05.05,0,.09,0,.05-.65Zm-387.24,369.92c-7.39-1.01-12.52-1.3-11.22-.78q.32.05.32.1c8.33,1.48,16.76,2.65,25.29,3.5.67.03,1.01.03.67-.05-.63-.54-7.32-1.87-15.06-2.78Zm151.6-53.73c-9.08,1.25-15.64-2.75-14.61-9.08.21-1.3.7-2.58,1.42-3.82l-8.28,8.28v16.87l-13.44,13.44h-8.72v13.01l-10.72,10.72h-6.01l-5.44,5.44c.58-.06,1.17-.12,1.77-.17,7.74-.86,12.88-.86,11.93-.29-.33.1-.99.21-1.66.34-4.51.65-9.04,1.2-13.6,1.68l-1.56,1.56c-11.97,1.63-24.13,2.65-36.45,3l-20.43-20.43v-9.2l-21.21-21.21h-18.2l-17.83-17.83h-7.8l-19.24-19.24v-11.85l-10.46-10.46v-10.11l7.62-7.62v-7.29l-6.43-6.43v-11.15l-7.65-7.65-5.22,5.22h-7.58l-4.43-4.43h-4.86l-6.01-6.01h-6.86l-24.03-24.03h-12.57l-15.46-15.46h-31.43l-17.32-17.32c-.87,5.65-4.47,9.05-9.37,7.92-6.06-1.48-12.06-9.83-13.47-18.45-1.35-8.85,2.42-15.23,8.68-13.96.04,0,.07.02.11.02v-4.06l-10.18-10.18v-20.02l-5.15-5.15v-15.78l-8.81-8.81v-18.3h-3.95v23.96l8.07,8.07v15.9l4.69,4.69v11.33l-10.76-10.76v-1.8c-.99,4.93-3.6,7.83-6.9,7.05-4.36-.93-8.5-8.9-9.41-17.57-.77-8.64,2.04-15.12,6.51-14.42.87.06,1.73.38,2.57.91v-23.04l-7.75-7.75v-44.85l-7.2-7.2v-35.18c-1.02,1.71-2.06,2.93-3.01,3.42-2.36,1.19-2.84-4.1-1.4-11.39,1.69-7.58,4.65-14.82,6.93-16.55,2.71-1.94,3.79,2.93,2.17,11.08-.07.38-.14.76-.22,1.14l2.86-2.86v-13.31l14.72-14.72v-23.02l7.87-7.87v-16.8l13.51-13.51v-8.86l9.45-9.45v-9.01l13.01-13.01v-4.86h-6.72v5l-15.01,15.01v-5.15l9.15-9.15v-7.47c25.24-28.32,55.11-52.42,88.41-71.13l6.25,6.25-11.73,11.73v6.01h7.72l3.72,3.72h8.72v-7.29l11.87-11.87h8.87l11.73-11.73v14.87h29.74l9.15,9.15v13.16h6.86l8.3,8.3-5.42,5.42v14.28l-9.15-9.15-4.02,4.02,8.01,8.01v6.29h-10.87l6.86,6.86v5.09h-6.35l-6.24-6.24h-9.44v-6.01l-6.58-6.58,13.73-13.73-5.15-5.15v-11.44h-8.52v12.21l-5.77,5.77h-8.27l-4.94,4.94,3.38,3.38v8.39l-8.48,8.48h-5.43l-4.29-4.29-29.17,29.17v20.02h9.15l17.16,17.16v18.3h9.02v-20.26l4.33-4.33v-6.49l11.25-11.25-6.29-6.29v-16.02l4.58-4.58v-9.01h12.44l9.87,9.87h9.72v3.15h-5.15v10.3h6.86l13.44-13.44,7.72,7.72v14.87l12.58,12.58v9.15l13.73,13.73v.5c12.55,2.15,21.93,12.54,21.67,25.44-.05,5.57-1.86,10.8-4.92,15.18,7.65,7.39,12.95,12.54,23.36,22.69,3.2-2.09,6.84-3.57,10.75-4.27.54-32.76.71-42.46,1.22-68.04-12.58-2.37-21.91-12.42-21.67-24.35.24-13.23,12.44-23.79,27.5-23.84,14.86.13,27.22,10.74,27.49,24,.2,12.1-9.45,22.26-22.41,24.33-.34,25.51-.47,35.15-.93,68.08,3.59.77,6.93,2.19,9.9,4.13,11.41-11.11,16.91-16.45,25.24-24.48-3.06-4.38-4.89-9.6-4.98-15.17-.18-14.69,11.97-26.1,27.22-25.66,15.09.55,27.76,12.64,28.38,27.19.52,14.79-11.53,26.59-26.96,26.23-5.77-.1-11.18-1.89-15.7-4.87-9.36,9.12-15.22,14.86-25.16,24.63,3.07,4.5,4.88,9.91,4.9,15.73.07,14.05-10.13,25.74-23.61,28.17-.43,28.69-.58,38.38-1.12,73.42,3.21.68,6.22,1.88,8.93,3.52,10.52-10.4,19.04-18.81,26.37-26.07-2.72-4.41-4.3-9.62-4.3-15.22,0-16,12.87-28.95,28.68-28.82,5.62.05,10.85,1.74,15.25,4.62,7.07-7.08,14.98-15.03,24.99-25.08-2.89-4.48-4.62-9.79-4.71-15.47-.35-15.46,11.47-27.5,26.35-26.85,14.44.52,26.54,13.21,27.09,28.3.42,15.23-11.03,27.37-25.7,27.19-5.69-.1-11.01-2.01-15.45-5.2-9.71,9.83-17.59,17.81-24.6,24.87,3.23,4.68,5.13,10.37,5.14,16.49-.02,15.78-12.65,28.69-28.34,28.8-6.24.02-12.02-1.98-16.73-5.39-7.25,7.18-15.52,15.36-25.72,25.42,3.5,4.75,5.56,10.59,5.53,16.91-.08,13.91-10.26,25.41-23.64,27.87-.42,27.13-.58,36.67-1.15,68.05,3.41.63,6.58,1.82,9.39,3.46,9.28-8.86,17.53-16.73,24.98-23.86-2.63-4.02-4.13-8.83-4.08-14.05.22-15.02,13.04-27.53,28.69-27.81,5.47-.11,10.52,1.31,14.74,3.85,8.9-8.73,17-16.82,25.54-25.51-2.55-4.22-3.98-9.28-3.87-14.76.27-15.65,12.75-28.49,27.79-28.7,5.26-.12,10.09,1.38,14.13,4.04,7.1-7.44,14.96-15.69,23.83-25.02-2.57-4.32-4.08-9.51-4.07-15.08-.07-15.46,11.13-27.76,24.8-27.32,13.23.26,23.82,12.45,23.94,27.32-.05,14.84-10.62,27.04-23.86,27.29-5.22.11-10.08-1.63-14.1-4.67-8.63,9.13-16.34,17.28-23.35,24.66,2.99,4.5,4.68,10.05,4.54,16.04-.49,15.1-12.61,27.84-27.18,28.44-5.85.21-11.23-1.53-15.6-4.65-8.49,8.67-16.43,16.63-24.91,24.95,3.12,4.36,4.86,9.73,4.65,15.56-.56,14.58-13.15,26.62-28.4,27.22-6.01.15-11.55-1.54-16.04-4.55-7.34,6.95-15.44,14.6-24.56,23.2,3.15,4.06,4.96,8.99,4.86,14.3-.03,1.53-.22,3.03-.55,4.48l6.53,6.53v9.34l-3.62,3.62v7.09h11.21l7.09-7.09h12.77l4.96,4.96h19.82l4.77,4.77h9.33l8.76,8.76v15.23l-9.94,9.94v9.87l-.05.05c3.17-2.04,7.03-3.5,11.09-3.99,9.27-1.25,15.45,3.3,14.23,9.73-1.46,6.25-9.72,12.22-18.53,13.57Zm-402.92-231.9l-1.98-1.98c.9,2.12,1.58,4.54,1.98,7.1v-5.12Zm263.92-49.03c0,6.25-1.94,12.01-5.26,16.73,6.62,6.75,14.22,14.49,23.47,23.9,3.42-2.46,7.4-4.2,11.73-4.99.47-33.71.62-43.91,1.08-73.43-13.07-2.77-22.82-14.3-22.76-28.03.04-5.83,1.85-11.23,4.91-15.72-9.14-8.98-14.74-14.46-23.32-22.83-4.54,2.97-9.97,4.75-15.77,4.85-3.12.06-6.09-.38-8.85-1.24l-18.44,18.44h-10.2v-12.68l-9.66,9.66c6.66,4.85,10.91,12.94,10.71,22.25-.1,5.86-1.92,11.33-4.94,15.88,8.93,9.28,16.14,16.77,22.59,23.44,4.55-3.2,10.07-5.09,16.02-5.13,15.85-.1,28.71,12.82,28.69,28.9Zm-57.55-115.15l10.58,10.58,2.07-2.07c-3.83-3.59-6.51-8.3-7.55-13.62l-5.11,5.11Zm-16.97,4.39l15.61-15.6h6.03c.1-1.86.4-3.68.88-5.43h-10.79l-11.73,11.73v9.31Zm-49.35,131.71c6.6,6.99,12.59,13.33,18.13,19.17,3.97-2.56,8.7-4,13.83-3.93,15,.23,27.5,13.08,27.82,28.72.1,5.41-1.3,10.4-3.81,14.58,7.78,7.91,15.34,15.47,23.65,23.63,4.18-2.51,9.18-3.91,14.63-3.79,15.52.24,28.51,12.77,28.62,27.74.12,5.22-1.35,10.01-3.97,14.01,6.97,6.68,14.65,14.02,23.2,22.18,2.98-1.76,6.37-3.02,10.05-3.63.38-30.93.49-39.89.86-68.11-12.94-2.75-22.69-14.07-22.82-27.71-.02-5.48,1.52-10.61,4.21-14.97-9.44-9.59-17.17-17.43-23.96-24.36-4.42,2.79-9.64,4.39-15.25,4.35-15.65-.05-28.3-12.94-28.37-28.85.01-5.79,1.71-11.18,4.61-15.71-6.48-6.76-13.75-14.36-22.58-23.62-4.37,3.03-9.58,4.84-15.14,4.93-5.46.06-10.47-1.59-14.59-4.45h-9.94v6.58l7.15,7.15v17.16l-13.16,13.16v12.58l-3.18,3.18Zm80.03,126.66c-7.28-4.94-12.22-12.95-12.6-21.9-.21-5.81,1.5-11.17,4.59-15.53-7.94-7.78-15.34-15.17-23.07-23.03-4.34,3.1-9.68,4.83-15.48,4.62-14.54-.62-26.63-13.28-27.18-28.38-.17-5.99,1.5-11.5,4.47-15.97-5.55-5.85-11.53-12.18-18.09-19.13l-2.5,2.5,6.44,6.43v11.73l7.15,7.15v8.72h-7.58l-8.15-8.15v-8.87l-18.59-18.59h-15.75v12.32l-3.55,3.55-6.43-6.43h-14.01l-8.87,8.87v32.6l5.72,5.72v11.44l21.31,21.31,6.43-6.43v-11.15l7.72-7.72h8.01l6.29,6.29v35.44h18.33l7.46,7.46v19.97l15.3,15.3,5.81-5.81h11.15l3.72,3.72h7.44v-8.58l19.45-19.45v15.44h6.86v-15.44h8.22Zm38.96,7.75l.11-.11c-2.54-2.4-5-4.73-7.37-6.98-4.49,2.98-10.03,4.65-16.03,4.49-5.65-.2-10.94-2.01-15.39-4.96v11.33l5.23-5.23v9.62h15.86l8.16-8.16h9.43Zm10.59,19.08h2.33c.72-1.61,1.63-3.12,2.7-4.54-3.95-3.73-7.71-7.27-11.3-10.67v8.94l6.27,6.27Zm197.88,31.27c-8.99,1.38-17.55,9.21-18.84,17.25-1.41,7.81,4.69,12.69,13.25,11.21,8.61-1.76,16.77-9.16,18.38-16.71,1.55-7.76-4.14-13.1-12.79-11.75Zm56.63-58.3c-8.02,1.3-15.71,9.65-17.06,18.65-1.5,8.88,3.83,14.53,11.6,13,7.72-1.84,14.91-9.78,16.67-18.42,1.48-8.56-3.38-14.63-11.21-13.23Zm75.49-9.58c2.05-7.39.42-12.01-3.8-10.3-4.61,1.82-10.1,9.81-12.03,17.75-2,7.62.06,12.09,4.59,9.73,4.12-2.28,9.02-9.81,11.23-17.18Zm25.74-65.4c-2.76,1.4-6.23,8.71-7.67,16.86-1.53,7.84-.44,12.72,2.16,11.08,2.27-1.74,5.34-9.29,6.93-16.55,1.52-7.63.93-12.58-1.42-11.39Zm13.89-49.66c-.61.29-1.83,7-2.55,14.79-.79,7.39-.85,12.87-.22,11.6.04,0,.17-.67.29-1.35,1.11-7.71,1.97-15.49,2.57-23.37.06-1.33.04-1.97-.09-1.66Zm-248.63,293.78c-7.83,1.37-15.45,4.93-16.87,7.71-1.2,2.36,3.77,2.9,11.39,1.38,7.58-1.69,14.8-4.65,16.55-6.93,1.94-2.7-3.26-3.69-11.08-2.15Zm55.95-33.94c-7.93,1.94-15.9,7.42-17.72,12.06-1.71,4.2,2.9,5.84,10.3,3.79,7.35-2.26,14.89-7.13,17.16-11.26,2.36-4.52-1.83-6.74-9.75-4.59Zm63.9-38.74c2.5-5.91-1.09-9-7.97-6.87-7.39,2.28-15.03,9.11-17.35,15.41-2.07,5.78,1.81,8.48,8.81,5.99,6.67-2.49,14.02-8.92,16.52-14.53Zm43.16-60.01c-6.3,2.34-13.12,9.96-15.4,17.38-2.13,6.87.98,10.46,6.9,7.94,5.58-2.49,12.03-9.83,14.51-16.53,2.47-6.98-.24-10.87-6.01-8.79Zm48.2-29.68c-2.51,2.9-6.9,10.12-9.74,16.29-3.05,6.07-3.47,8.22-1.12,4.88.37-.57.73-1.14,1.1-1.71,3.27-5.45,6.37-10.97,9.33-16.6v-.03c1.79-3.66,2.11-5.01.43-2.83Zm16.64-35.34c-.25.65-.48,1.27-.66,1.92,1.55-3.99,3.03-8.04,4.42-12.14h0c-1.09,2.85-2.47,6.69-3.75,10.22Zm-208.44,202.19c4.06-1.4,8.09-2.85,12.08-4.38-.66.18-1.3.42-1.94.65-3.48,1.27-7.29,2.65-10.14,3.73Zm61.76-30.15c-6.16,2.85-13.4,7.24-15.99,9.6-2.49,1.84-1.13,1.51,2.54-.29,5.63-2.96,11.17-6.07,16.59-9.34.57-.39,1.16-.73,1.73-1.12,3.35-2.34,1.2-1.92-4.87,1.14Zm50.36-38.58c-5.33,3.09-12.21,9-15.36,13.15-3.1,3.74-1.35,3.81,3.46.6,4.67-3.42,11.19-8.9,14.79-12.51,3.4-3.81,2.03-4.33-2.9-1.25Zm44.56-46.81c-3.94,2.91-10.07,10.04-13.15,15.39-3.09,4.9-2.35,6.04,1.46,2.62,3.39-3.35,8.86-9.86,12.28-14.53,3.41-5.09,3.14-6.57-.59-3.48Z"/>
  <path class="cls-2" d="m252.9,811.14c-7.39,4.17-15.27,5.05-23.64,2.62-8.35-2.4-14.67-7.39-18.94-14.97-4.22-7.48-5.17-15.41-2.84-23.79,2.32-8.4,7.23-14.71,14.74-18.95,7.55-4.26,15.48-5.18,23.79-2.75,8.34,2.44,14.68,7.49,19,15.16,3.83,6.78,4.92,14.2,3.27,22.24-1.84,8.87-6.97,15.68-15.38,20.43Zm-4.41-8.05c5.81-3.28,9.48-7.92,11.02-13.93,1.55-5.99.9-11.53-1.97-16.61-3.11-5.51-7.64-9.08-13.59-10.72-5.99-1.61-11.76-.86-17.29,2.27-5.6,3.16-9.24,7.68-10.92,13.56-1.71,5.87-1.02,11.55,2.08,17.04,3.08,5.47,7.59,9.01,13.53,10.62,5.89,1.64,11.6.9,17.13-2.22Zm-5.07-75.7l-56.71,20.53-3.08-8.52c-1.37-3.8-2.17-6.93-2.4-9.39-.24-2.49.06-4.77.89-6.84.87-2.11,2.21-4.03,4.03-5.74,1.83-1.74,3.86-3.02,6.09-3.83,4.06-1.47,8.07-1.16,12.01.93-.06-3.38.88-6.41,2.82-9.08,1.91-2.69,4.55-4.64,7.93-5.86,4.43-1.6,8.75-1.39,12.94.63,2.57,1.2,4.65,2.85,6.23,4.93,1.64,2.31,3.16,5.41,4.56,9.27l4.69,12.97Zm-35.46,3.16l-.97-2.68c-1.15-3.18-2.7-5.26-4.64-6.23-1.94-.97-4.29-.96-7.03.03-2.67.97-4.42,2.46-5.25,4.48-.83,2.02-.73,4.47.32,7.36l1.09,3.01,16.49-5.97Zm24.31-8.8l-1.92-5.29c-1.4-3.87-3.19-6.43-5.36-7.7-2.33-1.32-4.76-1.52-7.28-.6-2.45.89-4.17,2.55-5.17,4.99-.99,2.38-.66,5.87,1.01,10.48l1.57,4.33,17.15-6.21Zm-62.42-65.17l5.84,6.29c-2.05,1.86-3.3,3.47-3.75,4.85-.54,1.45-.59,3.18-.16,5.19.53,2.47,1.68,4.37,3.43,5.69,1.73,1.33,3.63,1.77,5.72,1.32,2.88-.62,4.73-3.26,5.56-7.92l1.13-6.4c.9-5.2,2.5-9.21,4.81-12.03,2.31-2.82,5.48-4.66,9.53-5.54,5.42-1.17,10.29-.33,14.61,2.51,4.35,2.87,7.11,7,8.28,12.4,1.11,5.12.51,9.67-1.8,13.66-2.32,3.94-6.14,6.91-11.46,8.91l-3.94-8.58c3.37-1.16,5.61-2.39,6.72-3.69,2.15-2.38,2.84-5.33,2.08-8.84-.6-2.77-2.03-4.88-4.28-6.31-2.25-1.43-4.81-1.84-7.66-1.22-1.14.25-2.16.63-3.05,1.16-.88.52-1.66,1.21-2.31,2.06-.66.85-1.22,1.88-1.69,3.1-.47,1.22-.86,2.64-1.18,4.25l-1.14,6.2c-1.67,8.81-5.78,13.92-12.35,15.34-4.43.96-8.5.07-12.21-2.67-3.74-2.74-6.15-6.62-7.24-11.66-1.47-6.79.69-12.82,6.48-18.07Zm-6.34-55.92l1.96,24.1,14.44-1.18-1.91-23.4,8.53-.69,1.91,23.4,20.09-1.64-1.96-24.1,8.53-.69,2.7,33.17-60.11,4.9-2.7-33.17,8.53-.7Zm26.85-41.58l26.66-17.28-.59,11.12-25.57,15.89-.09,1.64,24.65,1.31-.48,9.09-60.23-3.2.57-10.65c.42-7.96,2.22-13.62,5.4-17,3.54-3.72,8.03-5.44,13.5-5.15,4.27.23,7.87,1.64,10.81,4.25,2.94,2.61,4.73,5.94,5.38,9.99Zm-7.5,10.95l.15-2.89c.46-8.61-2.6-13.09-9.18-13.44-6.16-.33-9.47,3.7-9.91,12.07l-.17,3.24,19.11,1.02Zm-22.96-53.29l44.23-8.3-37.75-24.66,1.92-9.77,58.4,39.07-68.73,13.44,1.92-9.77Zm67.57-75.09l-8.66,24.32,11.55,11.24-3.29,9.24-50.38-49.62,70.04-5.62-3.34,9.38-15.92,1.05Zm-9.3.63l-22.32,1.55,16.17,15.71,6.15-17.26Zm-5.75-56.25l46.08,23.58-4.15,8.1-46.08-23.58-6.32,12.35-7.62-3.9,16.76-32.76,7.62,3.9-6.3,12.31Zm30.31-12.73c-6.9-4.95-11.01-11.72-12.34-20.33-1.34-8.59.52-16.42,5.59-23.48,5.01-6.98,11.8-11.18,20.37-12.6,8.59-1.43,16.39.36,23.39,5.38,7.05,5.05,11.22,11.86,12.52,20.42,1.31,8.59-.61,16.47-5.73,23.62-4.54,6.33-10.8,10.44-18.79,12.34-8.82,2.07-17.16.29-25.01-5.34Zm5.44-7.39c5.42,3.88,11.18,5.26,17.28,4.12,6.09-1.12,10.83-4.04,14.23-8.79,3.69-5.14,5.02-10.76,4-16.84-1.06-6.11-4.18-11.02-9.34-14.72-5.23-3.75-10.86-5.14-16.9-4.18-6.04.92-10.9,3.95-14.57,9.07-3.66,5.1-4.97,10.68-3.93,16.75.99,6.03,4.07,10.9,9.24,14.6Zm62.93-69.14l31.35,5.14-7.91,7.83-29.61-5.43-1.17,1.15,17.37,17.55-6.47,6.4-42.42-42.87,7.58-7.5c5.66-5.6,10.81-8.59,15.43-8.95,5.12-.38,9.61,1.38,13.45,5.26,3,3.04,4.72,6.51,5.14,10.41.42,3.91-.49,7.57-2.74,11.01Zm-12.92,3.05l2.05-2.03c6.13-6.06,6.87-11.44,2.24-16.12-4.34-4.39-9.49-3.63-15.45,2.27l-2.3,2.28,13.46,13.61Zm24.21-58.75l37.59,47.16-7.12,5.67-37.59-47.16,7.12-5.67Zm33.46,10.88c-4.33-7.3-5.38-15.16-3.14-23.58,2.22-8.4,7.07-14.83,14.54-19.27,7.39-4.39,15.29-5.51,23.72-3.36,8.44,2.13,14.87,6.91,19.27,14.32,4.43,7.46,5.52,15.36,3.28,23.72-2.25,8.4-7.16,14.84-14.73,19.33-6.69,3.98-14.08,5.23-22.16,3.76-8.91-1.64-15.83-6.62-20.77-14.93Zm7.95-4.59c3.4,5.73,8.13,9.3,14.17,10.71,6.02,1.42,11.54.64,16.56-2.34,5.44-3.23,8.91-7.84,10.42-13.82,1.48-6.03.6-11.77-2.65-17.24-3.29-5.53-7.88-9.07-13.8-10.61-5.91-1.58-11.57-.76-16.99,2.46-5.4,3.2-8.84,7.79-10.32,13.76-1.51,5.92-.64,11.62,2.6,17.08Zm102.46-17.6l-16.57-57.99,12.17-3.48c5.83-1.67,10.61-2.41,14.32-2.22,3.95.09,7.79,1.06,11.52,2.92,7.54,3.75,12.59,10.07,15.13,18.96,2.55,8.91,1.49,17.02-3.17,24.31-2.34,3.65-5.08,6.5-8.2,8.56-2.9,1.99-7.29,3.83-13.17,5.51l-12.02,3.43Zm6.4-10.73l3.94-1.13c3.93-1.12,7.08-2.47,9.45-4.04,2.35-1.62,4.31-3.68,5.87-6.19,3.18-5.16,3.87-10.9,2.07-17.21-1.82-6.36-5.42-10.91-10.81-13.65-4.84-2.44-10.99-2.59-18.45-.46l-3.95,1.13,11.87,41.54Zm79.41-60.15l-23.97,3.18,1.91,14.37,23.27-3.09,1.13,8.48-23.27,3.09,2.65,19.98,23.97-3.18,1.13,8.48-32.99,4.38-7.94-59.79,32.99-4.38,1.13,8.48Zm64.7-9.13l-3.29,51.65,17.7,1.13-.54,8.54-26.78-1.71,3.83-60.19,9.08.58Zm67.02,56.02l-25.26-5.36-9.61,12.93-9.59-2.04,42.51-56.51,14.85,68.68-9.74-2.07-3.15-15.64Zm-1.85-9.14l-4.49-21.92-13.43,18.12,17.92,3.8Zm104.99,9.06l-8.54.83c-.23-2.75-.76-4.73-1.59-5.92-.83-1.31-2.17-2.4-4.03-3.27-2.29-1.07-4.49-1.31-6.61-.72-2.11.57-3.61,1.82-4.52,3.75-1.25,2.67-.27,5.74,2.93,9.22l4.4,4.78c3.59,3.87,5.81,7.58,6.65,11.12.84,3.54.39,7.19-1.37,10.94-2.35,5.02-5.97,8.39-10.85,10.1-4.92,1.72-9.88,1.41-14.88-.93-4.74-2.22-8-5.46-9.77-9.71-1.73-4.23-1.78-9.07-.15-14.52l9.21,2.07c-1.12,3.38-1.5,5.91-1.13,7.58.59,3.15,2.52,5.49,5.77,7.02,2.57,1.2,5.11,1.34,7.61.42,2.5-.93,4.38-2.71,5.61-5.35.5-1.06.8-2.1.92-3.12.12-1.02.04-2.05-.24-3.09-.28-1.04-.76-2.11-1.45-3.22-.69-1.11-1.58-2.28-2.67-3.51l-4.24-4.66c-6-6.66-7.57-13.03-4.72-19.12,1.92-4.1,5.1-6.8,9.53-8.09,4.44-1.31,9-.88,13.66,1.31,6.3,2.95,9.78,8.32,10.45,16.11Zm7.16,26.82c4.81-7,11.5-11.25,20.08-12.74,8.56-1.51,16.42.19,23.59,5.12,7.08,4.87,11.42,11.57,13,20.12,1.61,8.56-.03,16.39-4.91,23.5-4.91,7.15-11.63,11.46-20.16,12.93-8.57,1.48-16.48-.28-23.73-5.26-6.42-4.41-10.65-10.59-12.71-18.54-2.25-8.78-.64-17.15,4.83-25.11Zm7.5,5.29c-3.77,5.5-5.03,11.28-3.77,17.36,1.24,6.06,4.26,10.75,9.07,14.05,5.22,3.58,10.85,4.8,16.92,3.66,6.09-1.19,10.94-4.4,14.53-9.64,3.64-5.3,4.92-10.96,3.84-16.98-1.04-6.02-4.16-10.82-9.36-14.39-5.17-3.55-10.78-4.75-16.82-3.59-6.01,1.12-10.82,4.29-14.41,9.53Zm98.03,52.58l-8.35-1.98c.67-2.68.81-4.72.42-6.11-.36-1.5-1.28-2.97-2.75-4.4-1.82-1.76-3.82-2.7-6.01-2.83-2.18-.15-4.01.55-5.49,2.08-2.05,2.12-2.12,5.34-.22,9.67l2.61,5.95c2.15,4.83,3.04,9.05,2.69,12.68-.35,3.62-1.97,6.93-4.85,9.9-3.86,3.99-8.37,6-13.54,6.03-5.21.03-9.8-1.87-13.77-5.71-3.76-3.64-5.79-7.76-6.09-12.36-.26-4.56,1.26-9.16,4.57-13.78l8.04,4.95c-2.16,2.84-3.34,5.1-3.53,6.8-.46,3.18.6,6.01,3.18,8.51,2.04,1.97,4.4,2.93,7.07,2.86,2.67-.06,5.02-1.14,7.04-3.24.82-.84,1.44-1.73,1.89-2.66.45-.93.71-1.93.78-3,.08-1.07-.03-2.24-.32-3.52-.29-1.27-.75-2.67-1.38-4.19l-2.5-5.79c-3.51-8.25-2.93-14.79,1.74-19.62,3.15-3.26,7.03-4.78,11.63-4.56,4.62.2,8.79,2.09,12.5,5.67,5,4.83,6.55,11.04,4.65,18.62Zm26.59,30.71l-40.42,32.33-5.69-7.11,40.42-32.33-8.66-10.83,6.68-5.34,22.99,28.73-6.68,5.34-8.64-10.8Zm36.47,54.19l-12.68-20.58-12.34,7.6,12.32,19.99-7.28,4.49-12.31-19.99-17.16,10.57,12.69,20.58-7.28,4.49-17.46-28.33,51.35-31.64,17.46,28.33-7.28,4.49Zm-36.47,40.49l59.5-24.68-25.65,58.26,38.71-16.06,3.49,8.41-59.1,24.52,25.54-58.22-39,16.18-3.49-8.41Zm85.45,59.86l-58.25,15.65-2.36-8.79,58.25-15.65,2.36,8.79Zm-53.76,33.67l59.56-9.48,1.42,8.95c.63,3.99.83,7.21.59,9.68-.24,2.49-.96,4.67-2.16,6.55-1.25,1.91-2.93,3.54-5.04,4.88-2.13,1.37-4.36,2.24-6.7,2.61-4.27.68-8.14-.38-11.62-3.17-.58,3.33-2.07,6.13-4.48,8.39-2.38,2.28-5.34,3.7-8.89,4.26-4.66.74-8.85-.28-12.59-3.06-2.3-1.67-4.03-3.67-5.19-6.02-1.18-2.58-2.09-5.9-2.73-9.97l-2.17-13.62Zm9.88,7.64l.88,5.55c.65,4.06,1.92,6.92,3.82,8.57,2.04,1.73,4.39,2.39,7.04,1.97,2.57-.41,4.58-1.72,6.02-3.92,1.42-2.15,1.75-5.65.98-10.48l-.72-4.55-18.02,2.87Zm25.54-4.06l.45,2.82c.53,3.34,1.66,5.68,3.39,7,1.73,1.32,4.03,1.75,6.91,1.29,2.8-.45,4.8-1.58,6-3.41,1.2-1.83,1.56-4.26,1.08-7.29l-.5-3.16-17.32,2.76Zm31.78,53.24l-60.23,3.18-.48-9.09,60.23-3.18.48,9.09Zm.11,33.28l-51.72-1.94-.67,17.72-8.55-.32,1-26.82,60.27,2.26-.34,9.1Zm-3.88,45.01l-59.82-7.71,1.16-9.03,59.82,7.7-1.16,9.03Zm-62.23,10.5l58.46,14.81-3.11,12.27c-1.49,5.88-3.25,10.38-5.27,13.49-2.06,3.37-4.84,6.2-8.32,8.49-7.03,4.64-15.03,5.82-23.99,3.55-8.99-2.28-15.46-7.26-19.42-14.95-1.98-3.86-3.07-7.66-3.28-11.39-.27-3.51.35-8.22,1.85-14.16l3.07-12.12Zm6.06,10.92l-1.01,3.98c-1,3.96-1.42,7.36-1.25,10.2.22,2.85,1.02,5.58,2.4,8.18,2.86,5.35,7.47,8.83,13.84,10.44,6.41,1.62,12.15.8,17.23-2.48,4.54-2.96,7.76-8.2,9.67-15.72l1.01-3.98-41.88-10.61Zm-22.06,83.81l10.2-23.72-10.8-11.96,3.87-9.01,47.09,52.74-70.26,1.12,3.94-9.15,15.96-.03Zm9.32-.03l22.37-.11-15.13-16.72-7.24,16.83Zm-34.86,18.51l50.8,32.51-6.82,10.66c-3.27,5.11-6.36,8.82-9.26,11.14-3.02,2.55-6.55,4.36-10.57,5.43-8.14,2.18-16.1.78-23.88-4.2-7.81-5-12.38-11.77-13.71-20.32-.66-4.29-.5-8.23.48-11.84.85-3.41,2.93-7.7,6.23-12.85l6.74-10.53Zm2.3,12.28l-2.21,3.46c-2.2,3.44-3.67,6.54-4.41,9.28-.69,2.77-.79,5.61-.31,8.52,1.03,5.98,4.31,10.73,9.84,14.27,5.57,3.56,11.28,4.59,17.14,3.08,5.24-1.38,9.95-5.33,14.13-11.87l2.21-3.46-36.39-23.29Zm-536.36,150.9c2.9,1.64,4.78,4.13,5.64,7.49.89,3.35.49,6.53-1.21,9.54-1.74,3.08-4.27,5.1-7.58,6.04-3.33.96-6.48.6-9.48-1.09-2.95-1.66-4.89-4.18-5.83-7.55-.88-3.37-.47-6.56,1.23-9.58,1.74-3.08,4.28-5.09,7.61-6.02,3.37-.94,6.57-.55,9.61,1.16Zm127.48,60.47c.85-8.45,4.68-15.39,11.49-20.83,6.78-5.44,14.5-7.72,23.15-6.85,8.55.86,15.57,4.66,21.07,11.4,5.52,6.74,7.85,14.39,6.99,22.97-.87,8.63-4.7,15.64-11.47,21.02-6.8,5.41-14.58,7.67-23.34,6.79-7.75-.78-14.43-4.17-20.06-10.15-6.19-6.62-8.8-14.74-7.83-24.35Zm9.12,1.04c-.67,6.63,1.01,12.31,5.03,17.04,4,4.72,8.9,7.38,14.7,7.96,6.3.64,11.83-1,16.59-4.92,4.77-3.97,7.48-9.11,8.12-15.43.65-6.4-.95-11.98-4.79-16.74-3.81-4.78-8.85-7.49-15.12-8.12-6.25-.63-11.74,1.01-16.48,4.93-4.73,3.87-7.42,8.96-8.06,15.28Zm100.65-17.68l-7.2,4.68c-1.48-2.34-2.86-3.84-4.14-4.52-1.34-.78-3.03-1.12-5.09-1.04-2.52.1-4.59.91-6.2,2.41-1.61,1.47-2.37,3.28-2.28,5.41.12,2.94,2.41,5.22,6.85,6.83l6.11,2.21c4.97,1.77,8.65,4.04,11.03,6.79,2.38,2.75,3.66,6.2,3.83,10.34.23,5.54-1.43,10.2-4.97,13.97-3.57,3.8-8.11,5.81-13.63,6.04-5.23.22-9.61-1.15-13.15-4.11-3.49-2.96-5.76-7.23-6.83-12.81l9.13-2.41c.56,3.52,1.39,5.94,2.49,7.25,1.98,2.52,4.77,3.71,8.36,3.56,2.84-.12,5.15-1.16,6.95-3.14,1.79-1.98,2.63-4.42,2.51-7.34-.05-1.17-.26-2.24-.62-3.2-.37-.96-.91-1.84-1.63-2.63s-1.65-1.52-2.77-2.19c-1.12-.67-2.45-1.3-3.99-1.89l-5.92-2.18c-8.39-3.14-12.73-8.07-13.01-14.79-.19-4.53,1.38-8.39,4.72-11.57,3.33-3.21,7.58-4.93,12.73-5.14,6.95-.29,12.51,2.87,16.7,9.47Zm29.9-4.51l7.7,51.18-9,1.35-7.7-51.18-13.71,2.06-1.27-8.46,36.39-5.48,1.27,8.46-13.67,2.06Zm140.68-41.52c2.89-1.67,5.99-2.01,9.32-1.05,3.33.93,5.87,2.9,7.6,5.9,1.77,3.07,2.22,6.27,1.34,9.6-.86,3.35-2.78,5.89-5.76,7.61-2.93,1.69-6.09,2.09-9.47,1.18-3.35-.96-5.89-2.93-7.62-5.93-1.77-3.07-2.21-6.27-1.31-9.62.91-3.38,2.87-5.94,5.89-7.69Z"/>
</svg>